<svg width="25" height="23" viewBox="0 0 25 23" fill="none" xmlns="http://www.w3.org/2000/svg">
<path d="M21.2913 3.99586C20.7805 3.48486 20.1741 3.07951 19.5066 2.80294C18.8392 2.52638 18.1238 2.38403 17.4013 2.38403C16.6788 2.38403 15.9634 2.52638 15.2959 2.80294C14.6285 3.07951 14.022 3.48486 13.5113 3.99586L12.4513 5.05586L11.3913 3.99586C10.3596 2.96417 8.96032 2.38457 7.50129 2.38457C6.04226 2.38457 4.64298 2.96417 3.61129 3.99586C2.5796 5.02755 2 6.42683 2 7.88586C2 9.34489 2.5796 10.7442 3.61129 11.7759L4.67129 12.8359L12.4513 20.6159L20.2313 12.8359L21.2913 11.7759C21.8023 11.2651 22.2076 10.6587 22.4842 9.99121C22.7608 9.32375 22.9031 8.60835 22.9031 7.88586C22.9031 7.16337 22.7608 6.44796 22.4842 5.7805C22.2076 5.11304 21.8023 4.50661 21.2913 3.99586Z" stroke="white" stroke-width="3" stroke-linecap="round" stroke-linejoin="round"/>
</svg>
