<svg width="23" height="21" viewBox="0 0 23 21" fill="none" xmlns="http://www.w3.org/2000/svg">
<path d="M20.2913 2.99586C19.7805 2.48486 19.1741 2.07951 18.5066 1.80294C17.8392 1.52638 17.1238 1.38403 16.4013 1.38403C15.6788 1.38403 14.9634 1.52638 14.2959 1.80294C13.6285 2.07951 13.022 2.48486 12.5113 2.99586L11.4513 4.05586L10.3913 2.99586C9.3596 1.96417 7.96032 1.38457 6.50129 1.38457C5.04226 1.38457 3.64298 1.96417 2.61129 2.99586C1.5796 4.02755 1 5.42683 1 6.88586C1 8.34489 1.5796 9.74417 2.61129 10.7759L3.67129 11.8359L11.4513 19.6159L19.2313 11.8359L20.2913 10.7759C20.8023 10.2651 21.2076 9.65867 21.4842 8.99121C21.7608 8.32375 21.9031 7.60835 21.9031 6.88586C21.9031 6.16337 21.7608 5.44796 21.4842 4.7805C21.2076 4.11304 20.8023 3.50661 20.2913 2.99586Z" stroke="white" stroke-width="2" stroke-linecap="round" stroke-linejoin="round"/>
</svg>
