<svg width="150" height="150" viewBox="0 0 150 150" fill="none" xmlns="http://www.w3.org/2000/svg">
<g clip-path="url(#clip0_7_18)">
<mask id="mask0_7_18" style="mask-type:luminance" maskUnits="userSpaceOnUse" x="0" y="0" width="150" height="150">
<path d="M150 0H0V150H150V0Z" fill="white"/>
</mask>
<g mask="url(#mask0_7_18)">
<mask id="mask1_7_18" style="mask-type:luminance" maskUnits="userSpaceOnUse" x="0" y="0" width="150" height="150">
<path d="M150 0H0V150H150V0Z" fill="white"/>
</mask>
<g mask="url(#mask1_7_18)">
<mask id="mask2_7_18" style="mask-type:alpha" maskUnits="userSpaceOnUse" x="15" y="23" width="99" height="74">
<path fill-rule="evenodd" clip-rule="evenodd" d="M99.3652 24.6425C99.8433 24.2849 100.332 23.9189 101.016 23.6451C103.11 23.0172 104.738 23.3721 105.738 24.5382C105.935 24.7691 106.078 25.0112 106.211 25.2386C106.445 25.6372 106.652 25.9904 107.086 26.1568C107.763 26.4164 108.346 26.5291 108.91 26.6379C109.696 26.7897 110.443 26.9338 111.348 27.4587C114.003 29.0008 113.408 31.5631 110.639 31.5318C109.276 31.5164 107.913 31.5171 106.551 31.5179C104.361 31.5191 102.172 31.5202 99.982 31.4543C99.722 31.4465 99.3927 31.4538 99.0264 31.462C97.7633 31.4901 96.062 31.5281 95.2227 30.9859C93.1077 29.6191 93.8739 26.7982 95.9933 25.9152C96.3558 25.7642 96.7495 25.6967 97.1426 25.6295C97.6514 25.5422 98.1577 25.4556 98.5895 25.1881C98.8633 25.0186 99.1126 24.8317 99.3652 24.6425ZM70.2645 37.9948C64.3876 38.4146 56.907 41.9679 54.5398 51.3991C53.7646 54.4887 53.4898 65.2985 53.491 67.3897C53.491 67.4354 54.1846 67.4885 54.5754 67.4954C54.9158 67.501 55.4574 67.5029 56.0586 67.5054C57.579 67.511 59.4802 67.5179 59.4718 67.5897C59.419 68.051 59.4782 73.7916 59.533 76.8572C59.5334 76.881 59.5226 76.951 59.509 77.041C59.4694 77.2972 59.4046 77.721 59.4942 77.726C60.421 77.781 62.9427 77.7697 65.3095 77.7597C67.3427 77.751 69.262 77.7429 69.9583 77.7772L69.972 77.7779C70.0395 77.781 70.1077 77.7835 70.1114 77.931C70.1489 79.3872 70.372 87.9966 70.262 88.8366C70.2589 88.8604 72.197 88.8735 74.427 88.8885H74.4289C76.992 88.906 79.9395 88.9266 80.7658 88.9685C80.7702 88.9685 80.7739 88.9685 80.7789 88.9685C80.7864 88.9685 80.7933 88.9685 80.8008 88.9679C80.8608 88.9654 80.9139 88.9629 80.9195 89.1222C80.9283 89.4272 80.9333 90.2279 80.9395 91.1854V91.186C80.9539 93.2922 80.9733 96.1572 81.0452 96.1772C81.207 96.2241 82.0689 96.0479 82.8995 95.8785C83.552 95.7454 84.1858 95.616 84.4452 95.6016C84.5833 95.5941 84.7108 95.5854 84.8333 95.5766C85.1202 95.5566 85.3839 95.5385 85.7083 95.5385C86.067 95.5385 86.8689 95.5354 86.8983 95.1772C87.0833 92.9141 87.0802 90.8972 87.077 88.761C87.0764 88.4916 87.0764 88.2204 87.0764 87.9466C87.0764 85.7685 87.0952 83.5966 87.1139 81.4122C87.1339 79.1991 87.1533 76.9729 87.1533 74.7116C87.1533 71.2522 87.1083 67.8679 87.0639 64.4885C87.0189 61.1182 86.9745 57.7519 86.9745 54.3219C86.9745 54.0756 85.9408 53.9631 85.0377 53.8647C84.5739 53.8144 84.1451 53.7676 83.9089 53.7087C80.6583 52.8959 79.0964 49.8856 81.7502 47.1604C82.742 46.1424 84.5102 46.1399 85.0452 46.1396C85.1114 46.1391 85.1589 46.1391 85.1833 46.1376C85.4095 46.1204 82.9614 43.3336 81.6858 42.0576C78.9295 39.3017 74.3801 37.9948 70.2645 37.9948ZM28.2632 66.3654C26.2851 66.6616 25.364 67.9366 24.4315 69.2272C23.8278 70.0629 23.2193 70.9054 22.316 71.4935C21.5208 72.0116 20.5303 72.1029 19.5359 72.1954C18.4305 72.2979 17.3203 72.401 16.4686 73.0897C13.6203 75.3947 15.9448 77.9885 19.7219 78.1091C24.1329 78.2504 28.8278 78.1922 33.5225 78.1335C35.4741 78.1097 37.4258 78.0854 39.3569 78.0754C43.8738 78.0522 43.2822 73.3322 40.9434 71.1585C39.5688 69.8822 36.881 69.2229 35.1852 68.9479C34.1098 68.7741 33.2193 68.2097 32.3333 67.6472C31.1219 66.8797 29.9189 66.1172 28.2632 66.3654Z" fill="#D9D9D9"/>
</mask>
<g mask="url(#mask2_7_18)">
<path fill-rule="evenodd" clip-rule="evenodd" d="M99.3652 24.6425C99.8433 24.2849 100.332 23.9189 101.016 23.6451C103.11 23.0172 104.738 23.3721 105.738 24.5382C105.935 24.7691 106.078 25.0112 106.211 25.2386C106.445 25.6372 106.652 25.9904 107.086 26.1568C107.763 26.4164 108.346 26.5291 108.91 26.6379C109.696 26.7897 110.443 26.9338 111.348 27.4587C114.003 29.0008 113.408 31.5631 110.639 31.5318C109.276 31.5164 107.913 31.5171 106.551 31.5179C104.361 31.5191 102.172 31.5202 99.982 31.4543C99.722 31.4465 99.3927 31.4538 99.0264 31.462C97.7633 31.4901 96.062 31.5281 95.2227 30.9859C93.1077 29.6191 93.8739 26.7982 95.9933 25.9152C96.3558 25.7642 96.7495 25.6967 97.1426 25.6295C97.6514 25.5422 98.1577 25.4556 98.5895 25.1881C98.8633 25.0186 99.1126 24.8317 99.3652 24.6425ZM70.2645 37.9948C64.3876 38.4146 56.907 41.9679 54.5398 51.3991C53.7646 54.4887 53.4898 65.2985 53.491 67.3897C53.491 67.4354 54.1846 67.4885 54.5754 67.4954C54.9158 67.501 55.4574 67.5029 56.0586 67.5054C57.579 67.511 59.4802 67.5179 59.4718 67.5897C59.419 68.051 59.4782 73.7916 59.533 76.8572C59.5334 76.881 59.5226 76.951 59.509 77.041C59.4694 77.2972 59.4046 77.721 59.4942 77.726C60.421 77.781 62.9427 77.7697 65.3095 77.7597C67.3427 77.751 69.262 77.7429 69.9583 77.7772L69.972 77.7779C70.0395 77.781 70.1077 77.7835 70.1114 77.931C70.1489 79.3872 70.372 87.9966 70.262 88.8366C70.2589 88.8604 72.197 88.8735 74.427 88.8885H74.4289C76.992 88.906 79.9395 88.9266 80.7658 88.9685C80.7702 88.9685 80.7739 88.9685 80.7789 88.9685C80.7864 88.9685 80.7933 88.9685 80.8008 88.9679C80.8608 88.9654 80.9139 88.9629 80.9195 89.1222C80.9283 89.4272 80.9333 90.2279 80.9395 91.1854V91.186C80.9539 93.2922 80.9733 96.1572 81.0452 96.1772C81.207 96.2241 82.0689 96.0479 82.8995 95.8785C83.552 95.7454 84.1858 95.616 84.4452 95.6016C84.5833 95.5941 84.7108 95.5854 84.8333 95.5766C85.1202 95.5566 85.3839 95.5385 85.7083 95.5385C86.067 95.5385 86.8689 95.5354 86.8983 95.1772C87.0833 92.9141 87.0802 90.8972 87.077 88.761C87.0764 88.4916 87.0764 88.2204 87.0764 87.9466C87.0764 85.7685 87.0952 83.5966 87.1139 81.4122C87.1339 79.1991 87.1533 76.9729 87.1533 74.7116C87.1533 71.2522 87.1083 67.8679 87.0639 64.4885C87.0189 61.1182 86.9745 57.7519 86.9745 54.3219C86.9745 54.0756 85.9408 53.9631 85.0377 53.8647C84.5739 53.8144 84.1451 53.7676 83.9089 53.7087C80.6583 52.8959 79.0964 49.8856 81.7502 47.1604C82.742 46.1424 84.5102 46.1399 85.0452 46.1396C85.1114 46.1391 85.1589 46.1391 85.1833 46.1376C85.4095 46.1204 82.9614 43.3336 81.6858 42.0576C78.9295 39.3017 74.3801 37.9948 70.2645 37.9948ZM28.2632 66.3654C26.2851 66.6616 25.364 67.9366 24.4315 69.2272C23.8278 70.0629 23.2193 70.9054 22.316 71.4935C21.5208 72.0116 20.5303 72.1029 19.5359 72.1954C18.4305 72.2979 17.3203 72.401 16.4686 73.0897C13.6203 75.3947 15.9448 77.9885 19.7219 78.1091C24.1329 78.2504 28.8278 78.1922 33.5225 78.1335C35.4741 78.1097 37.4258 78.0854 39.3569 78.0754C43.8738 78.0522 43.2822 73.3322 40.9434 71.1585C39.5688 69.8822 36.881 69.2229 35.1852 68.9479C34.1098 68.7741 33.2193 68.2097 32.3333 67.6472C31.1219 66.8797 29.9189 66.1172 28.2632 66.3654Z" fill="url(#paint0_radial_7_18)"/>
<g filter="url(#filter0_f_7_18)">
<path d="M64.7958 97.0574C72.0127 115.256 83.8927 127.691 91.3295 124.832C98.7671 121.974 98.9458 104.903 91.7283 86.7049C84.5114 68.5062 72.632 56.0711 65.1945 58.9299C57.7571 61.7888 57.5786 78.8593 64.7958 97.0574Z" fill="#615DE7"/>
</g>
<g filter="url(#filter1_f_7_18)">
<path d="M110.844 46.4042C118.061 64.6028 129.941 77.0378 137.378 74.179C144.816 71.3203 144.994 54.2499 137.777 36.0514C130.56 17.853 118.681 5.41776 111.243 8.27661C103.806 11.1355 103.627 28.2058 110.844 46.4042Z" fill="#615DE7"/>
</g>
<g filter="url(#filter2_f_7_18)">
<path d="M61.6073 43.7012C75.3869 57.7593 93.0813 62.957 101.129 55.3109C109.178 47.6647 104.531 30.0698 90.7519 16.0117C76.9725 1.95364 59.2779 -3.24422 51.2298 4.402C43.1818 12.0482 47.8279 29.643 61.6073 43.7012Z" fill="#C9E8FF"/>
</g>
<g filter="url(#filter3_f_7_18)">
<path d="M96.8214 60.962C115.36 53.9927 128.42 43.2703 125.993 37.013C123.566 30.7556 106.57 31.3328 88.0327 38.3021C69.4946 45.2715 56.4341 55.9938 58.8611 62.2512C61.2881 68.5088 78.2833 67.9313 96.8214 60.962Z" fill="url(#paint1_radial_7_18)"/>
</g>
<g filter="url(#filter4_f_7_18)">
<path d="M56.6643 69.0275C54.4005 86.0175 56.5253 100.283 61.4102 100.891C66.295 101.498 72.09 88.2175 74.3538 71.2275C76.6175 54.2376 74.4931 39.9718 69.6081 39.3643C64.7231 38.7567 58.928 52.0373 56.6643 69.0275Z" fill="#C9E8FF"/>
</g>
</g>
<path d="M68.0719 56.3449C67.2419 56.4321 66.0451 57.1396 65.3288 58.2693C64.9751 59.0269 63.4707 58.3945 62.7344 58.7105C60.8598 59.5149 60.1705 61.6529 62.0629 62.8482C63.0319 63.4595 65.2663 63.1995 66.2976 63.2201C69.4551 63.282 72.6107 63.187 75.7688 63.1895C78.2301 63.1913 78.7351 60.9089 76.3607 59.5629C74.9732 58.7769 74.5482 59.0745 73.1019 58.5373C72.4932 58.3113 72.0276 57.7893 71.5063 57.4181C70.3938 56.6265 69.4388 56.2016 68.0719 56.3449Z" fill="#FAF7F0"/>
<path d="M57.8715 23.2787C57.8191 23.331 57.8059 23.5534 57.8319 23.9459C57.8579 24.3383 57.8451 24.6261 57.7927 24.8093C57.7403 24.9924 57.7403 25.2802 57.7927 25.6727C57.8451 26.0651 57.8451 26.3268 57.7927 26.4576C57.7403 26.5884 57.7275 27.0856 57.7535 27.9489C57.7799 28.8124 57.7667 29.5188 57.7139 30.0683C57.6623 30.6177 57.7139 30.9316 57.8715 31.0101C57.9499 31.0494 58.0279 31.0886 58.1067 31.1279C58.1591 30.984 58.2115 30.8401 58.2635 30.6962C58.3683 30.4083 58.4467 29.1918 58.4995 27.0463C58.5511 24.9009 58.5383 23.7234 58.4599 23.5141C58.3815 23.3048 58.2767 23.2002 58.1459 23.2002C58.0151 23.2002 57.9235 23.2264 57.8715 23.2787ZM69.0562 29.2834C68.2455 30.3037 67.7874 30.8401 67.6824 30.8924C67.578 30.9448 67.2774 31.3241 66.7805 32.0305C66.2824 32.737 66.008 33.0902 65.9562 33.0902C65.9037 33.0902 65.838 33.1948 65.7593 33.4041C65.6812 33.6134 65.6549 33.7704 65.6812 33.8751C65.7074 33.9798 65.7993 34.0321 65.9562 34.0321C66.0349 34.0321 66.1124 34.0321 66.1912 34.0321C66.1912 33.9929 66.1912 33.9536 66.1912 33.9143C66.1912 33.8751 66.1912 33.8359 66.1912 33.7966C66.2174 33.7966 66.2437 33.7966 66.2699 33.7966C66.3224 33.7966 66.4399 33.6527 66.623 33.3649C66.8062 33.0771 66.963 32.894 67.0943 32.8154C67.2249 32.737 67.3687 32.5538 67.5262 32.266C67.6824 31.9782 67.8655 31.7428 68.0749 31.5596C68.2843 31.3764 68.4418 31.1671 68.5462 30.9316C68.6512 30.6962 68.7555 30.5523 68.8605 30.4999C68.9649 30.4476 69.1218 30.2906 69.3305 30.029C69.5405 29.7673 69.6449 29.5973 69.6449 29.5188C69.6449 29.4796 69.6449 29.4403 69.6449 29.4011C69.6712 29.4141 69.6974 29.4273 69.7237 29.4403C69.7493 29.4534 69.7762 29.4664 69.8024 29.4796C69.8149 29.4273 69.828 29.3749 69.8412 29.3226C69.8674 29.2179 70.0249 29.0217 70.3124 28.7339C70.6005 28.4461 70.7443 28.2106 70.7443 28.0274C70.7443 27.9359 70.7443 27.8443 70.7443 27.7527C70.6655 27.7527 70.5868 27.7527 70.508 27.7527C70.3518 27.7527 69.8674 28.2629 69.0562 29.2834ZM43.7035 29.872C43.6247 29.9244 43.6247 30.0813 43.7035 30.3429C43.7819 30.6046 44.0039 30.9055 44.3707 31.2456C44.7371 31.5858 44.9459 31.8213 44.9987 31.9521C45.0511 32.0829 45.2863 32.3445 45.7051 32.737C46.1235 33.1294 46.4247 33.4564 46.6075 33.7181C46.7907 33.9798 46.9479 34.1498 47.0783 34.2283C47.2095 34.3068 47.3271 34.4376 47.4319 34.6208C47.5363 34.8039 47.7587 35.0524 48.0991 35.3664C48.4391 35.6804 48.6747 35.8504 48.8051 35.8767C48.8711 35.8898 48.9363 35.9028 49.0015 35.9159C49.0147 35.8244 49.0275 35.7328 49.0411 35.6411C49.0671 35.458 48.7135 35.0001 47.9811 34.2676C47.2487 33.535 46.8299 33.064 46.7251 32.8547C46.6211 32.6454 46.4507 32.4491 46.2151 32.266C45.9795 32.0829 45.8491 31.9389 45.8227 31.8343C45.7967 31.7297 45.5479 31.4549 45.0771 31.0101C44.6059 30.5654 44.3315 30.2644 44.2527 30.1074C44.1743 29.9505 44.0827 29.8589 43.9783 29.8328C43.8735 29.8066 43.7819 29.8197 43.7035 29.872ZM56.6543 34.5423C56.5763 34.6208 56.4191 34.66 56.1835 34.66C55.9483 34.66 55.4511 34.8039 54.6923 35.0918C53.9335 35.3795 53.5279 35.5627 53.4759 35.6411C53.4231 35.7197 53.2403 35.8113 52.9263 35.9159C52.6123 36.0206 52.4295 36.1252 52.3767 36.2299C52.3247 36.3345 52.2199 36.4261 52.0627 36.5046C51.9059 36.5831 51.8275 36.6616 51.8275 36.74C51.8275 36.7793 51.8275 36.8186 51.8275 36.8578C51.7751 36.8578 51.7227 36.8578 51.6703 36.8578C51.5659 36.8578 51.4215 36.9363 51.2387 37.0933C51.0555 37.2503 50.9247 37.4204 50.8459 37.6035C50.7679 37.7866 50.6891 37.8913 50.6107 37.9174C50.5323 37.9436 50.4539 38.0352 50.3751 38.1921C50.2967 38.3491 50.2315 38.4276 50.1787 38.4276C50.1527 38.4276 50.1267 38.4276 50.1007 38.4276C50.1135 38.4538 50.1267 38.48 50.1399 38.5061C50.1659 38.5584 50.1135 38.6369 49.9827 38.7416C49.8519 38.8463 49.7867 38.9378 49.7867 39.0164C49.7867 39.0554 49.7867 39.0947 49.7867 39.1341C49.7603 39.1341 49.7343 39.1341 49.7083 39.1341C49.6819 39.1341 49.6555 39.1341 49.6295 39.1341C49.6295 39.1864 49.6295 39.2387 49.6295 39.2911C49.6295 39.3957 49.4991 39.6967 49.2367 40.1938C48.9755 40.691 48.8183 41.1486 48.7663 41.567C48.7135 41.9858 48.6619 42.2086 48.6091 42.2346C48.5571 42.2606 48.5307 42.8362 48.5307 43.9614C48.5307 45.0866 48.7007 46.133 49.0411 47.101C49.3811 48.069 49.6035 48.5926 49.7083 48.6706C49.8131 48.7494 49.9043 48.893 49.9827 49.1022C50.0611 49.3122 50.1527 49.4298 50.2575 49.4558C50.3623 49.4822 50.4275 49.5738 50.4539 49.7302C50.4799 49.8878 50.6631 50.1358 51.0031 50.4762C51.3435 50.8162 51.6967 51.1042 52.0627 51.3394C52.4295 51.575 52.6123 51.7186 52.6123 51.7714C52.6123 51.8234 52.8867 51.9938 53.4367 52.2814C53.9859 52.5694 54.2867 52.7002 54.3391 52.6742C54.3915 52.6478 54.4439 52.5042 54.4959 52.2422C54.5483 51.981 54.4043 51.7582 54.0643 51.575C53.7243 51.3918 53.5147 51.3134 53.4367 51.3394C53.3971 51.353 53.3579 51.3658 53.3183 51.379C53.3183 51.3394 53.3183 51.3002 53.3183 51.261C53.3183 51.1826 53.1091 50.9994 52.6907 50.7114C52.2719 50.4238 52.0367 50.2278 51.9843 50.123C51.9319 50.0182 51.8667 49.9658 51.7879 49.9658C51.7099 49.9658 51.4215 49.5866 50.9247 48.8278C50.4275 48.069 50.0483 47.2318 49.7867 46.3158C49.5251 45.4006 49.3811 44.6938 49.3551 44.197C49.3287 43.6994 49.3811 43.0982 49.5119 42.3914C49.6427 41.685 49.7995 41.149 49.9827 40.7826C50.1659 40.4158 50.2575 40.1546 50.2575 39.9973C50.2575 39.8407 50.3363 39.6967 50.4927 39.5657C50.6503 39.4351 50.7155 39.3434 50.6891 39.2911C50.6763 39.2651 50.6631 39.2387 50.6503 39.2128C50.6763 39.2128 50.7019 39.2128 50.7283 39.2128C50.7807 39.2128 50.9379 39.0164 51.1995 38.6238C51.4611 38.2314 51.6311 38.0221 51.7099 37.9959C51.7879 37.9698 51.8275 37.9174 51.8275 37.8389C51.8275 37.7604 51.9319 37.6166 52.1415 37.4073C52.3507 37.1979 52.5207 37.0803 52.6515 37.054C52.7823 37.0279 52.8739 36.9624 52.9263 36.8578C52.9787 36.7531 53.0703 36.6877 53.2007 36.6616C53.3319 36.6354 53.5147 36.5308 53.7503 36.3476C53.9859 36.1644 54.3783 35.9813 54.9275 35.7981C55.4775 35.615 55.9875 35.5104 56.4583 35.4841C56.9295 35.458 57.1779 35.4188 57.2043 35.3664C57.2303 35.3141 57.5439 35.3141 58.1459 35.3664C58.7475 35.4188 59.0747 35.4188 59.1275 35.3664C59.1791 35.3141 59.2707 35.3141 59.4019 35.3664C59.5327 35.4188 59.6111 35.4842 59.6371 35.5627C59.6635 35.6412 59.7943 35.6804 60.0299 35.6804C60.1475 35.6804 60.2651 35.6804 60.3831 35.6804C60.3831 35.7066 60.3831 35.7328 60.3831 35.7589C60.3831 35.8113 60.5399 35.9028 60.8539 36.0337C61.1683 36.1644 61.4035 36.2299 61.5603 36.2299C61.7175 36.2299 61.8091 36.2691 61.8351 36.3476C61.8615 36.4261 62.0183 36.5308 62.3059 36.6616C62.5937 36.7924 62.7637 36.9101 62.8162 37.0148C62.8687 37.1194 63.078 37.2895 63.4443 37.5249C63.8105 37.7604 64.0593 37.9829 64.1899 38.1921C64.3205 38.4014 64.4255 38.5193 64.5037 38.5454C64.5824 38.5715 64.6218 38.6239 64.6218 38.7024C64.6218 38.7808 64.3337 38.9771 63.758 39.2911C63.1824 39.605 62.8424 39.8407 62.7374 39.9973C62.6324 40.1546 62.4631 40.3114 62.2275 40.4686C61.9919 40.6254 61.8615 40.7562 61.8351 40.861C61.8219 40.9134 61.8091 40.9654 61.7955 41.0178C61.8351 41.0178 61.8743 41.0178 61.9135 41.0178C61.9919 41.0178 62.0575 40.9654 62.1095 40.861C62.1623 40.7562 62.2275 40.7038 62.3059 40.7038C62.3847 40.7038 62.528 40.6122 62.7374 40.4294C62.9468 40.2458 63.1824 40.1018 63.4443 39.9973C63.7062 39.893 64.5824 39.605 66.0737 39.1341C67.5649 38.6631 68.598 38.3884 69.1743 38.3099C69.7499 38.2314 70.4693 38.1921 71.3324 38.1921C72.1962 38.1921 72.6537 38.2184 72.7062 38.2707C72.7587 38.323 72.9937 38.3623 73.4124 38.3884C73.8318 38.4146 74.3418 38.5192 74.9437 38.7024C75.5449 38.8855 76.0818 39.0947 76.5524 39.3304C77.0237 39.5657 77.3637 39.6967 77.5724 39.7227C77.7818 39.749 78.2662 39.9584 79.0249 40.3506C79.7837 40.7434 80.503 41.2142 81.1837 41.7634C81.8637 42.313 82.2949 42.7182 82.4787 42.9806C82.6618 43.2418 82.8787 43.615 83.088 43.7722C83.2974 43.929 83.3862 44.059 83.438 44.2162C83.4905 44.373 83.6705 44.5622 83.8799 44.7718C84.0893 44.981 84.218 45.0994 84.323 45.4134C84.4274 45.7274 84.5455 45.8714 84.6762 45.845C84.8074 45.819 84.7262 46.0042 84.7787 46.1086C84.8305 46.2134 85.0949 46.1462 85.2255 46.1982C85.3568 46.2506 85.5393 46.2766 85.7749 46.2766C86.0105 46.2766 86.2199 46.2246 86.403 46.1202C86.5862 46.0154 86.9787 45.5442 87.5805 44.707C88.1824 43.8694 88.5618 43.3858 88.7187 43.255C88.8755 43.1238 88.9405 43.0322 88.9149 42.9806C88.9018 42.9542 88.8887 42.9278 88.8755 42.9018C88.928 42.9018 88.9805 42.9018 89.0324 42.9018C89.1374 42.9018 89.268 42.797 89.4249 42.5878C89.5824 42.3786 89.6868 42.2866 89.7387 42.313C89.7918 42.339 89.8699 42.2866 89.9743 42.1562C90.0793 42.025 90.3537 41.881 90.7987 41.7246C91.2437 41.567 91.4662 41.4626 91.4662 41.4106C91.4662 41.3842 91.4662 41.3578 91.4662 41.3318C91.5049 41.345 91.5443 41.3578 91.5837 41.3714C91.6618 41.397 91.8318 41.3578 92.0937 41.253C92.3555 41.149 92.5905 41.1094 92.8005 41.1354C93.0093 41.1618 93.1274 41.1486 93.1537 41.0966C93.1793 41.0438 93.2712 41.031 93.428 41.0574C93.5849 41.083 93.7418 41.0574 93.8993 40.9786C94.0562 40.9002 94.1605 40.9002 94.213 40.9786C94.2655 41.0574 94.3699 41.083 94.5274 41.0574C94.6837 41.031 94.8018 41.0574 94.8805 41.1354C94.9587 41.2142 95.063 41.2402 95.1943 41.2142C95.3249 41.1878 95.4424 41.2142 95.5474 41.2926C95.6524 41.3714 95.8349 41.4234 96.0968 41.4494C96.358 41.4758 96.7774 41.6066 97.3524 41.8422C97.928 42.0774 98.3737 42.313 98.6874 42.5482C98.7518 42.597 98.8118 42.6402 98.8662 42.6778C99.0774 42.8218 99.7599 43.085 99.7862 43.0586C99.7993 43.137 100.139 43.6214 100.218 43.8042C100.296 43.9878 100.44 44.1706 100.649 44.3538C100.859 44.537 100.964 44.681 100.964 44.7854C100.964 44.8902 101.002 44.9554 101.081 44.9818C101.159 45.0078 101.277 45.191 101.434 45.531C101.591 45.8714 101.814 46.1462 102.102 46.3554C102.389 46.5646 102.834 46.7218 103.436 46.8262C104.038 46.931 104.639 46.9574 105.241 46.9046C105.842 46.8526 106.366 46.8658 106.811 46.9438C107.256 47.0226 107.478 47.0878 107.478 47.1402C107.478 47.1926 107.622 47.2714 107.91 47.3758C108.197 47.4806 108.433 47.5854 108.616 47.6898C108.799 47.7946 108.891 47.8858 108.891 47.9646C108.891 48.043 108.969 48.1086 109.127 48.1606C109.284 48.213 109.362 48.2914 109.362 48.3962C109.362 48.5006 109.441 48.6706 109.597 48.9066C109.754 49.1418 109.898 49.2726 110.029 49.2986C110.095 49.3122 109.951 49.3774 110.016 49.3902C110.003 49.4166 110.199 49.3902 110.186 49.4162C110.173 49.4426 110.161 49.469 110.147 49.495C110.199 49.5082 110.252 49.521 110.304 49.5342C110.409 49.5602 110.5 49.6262 110.579 49.7302C110.657 49.835 110.827 49.9398 111.089 50.0442C111.351 50.149 113.195 50.411 113.482 50.5158C113.771 50.6202 113.914 50.7114 113.914 50.7902C113.914 50.8686 113.993 50.9474 114.15 51.0254C114.307 51.1042 114.437 51.3134 114.542 51.6534C114.647 51.9938 114.739 52.1902 114.817 52.2422C114.896 52.2946 114.922 52.4126 114.896 52.5954C114.869 52.7786 114.882 52.8834 114.935 52.9094C114.987 52.9358 114.961 53.0926 114.856 53.3802C114.752 53.6682 114.425 53.9034 113.876 54.087C113.326 54.2698 112.789 54.3486 112.266 54.3222C112.005 54.3094 111.743 54.2962 111.481 54.2834C111.481 54.3222 111.481 54.3614 111.481 54.401C111.481 54.4398 111.481 54.479 111.481 54.5186C111.351 54.479 111.219 54.4398 111.089 54.401C110.827 54.3222 110.631 54.3094 110.5 54.3614C110.369 54.4138 108.656 54.4398 105.359 54.4398C102.062 54.4398 99.8774 54.401 98.8049 54.3222C97.7318 54.2438 96.8949 54.2174 96.293 54.2438C95.6912 54.2698 95.3249 54.257 95.1943 54.2046C95.063 54.1522 94.5662 54.1258 93.7024 54.1258C92.8393 54.1258 92.3555 54.1522 92.2505 54.2046C92.1462 54.257 92.0674 54.257 92.0149 54.2046C91.963 54.1522 91.7799 54.113 91.4662 54.087C91.1518 54.0606 89.6749 54.1046 89.6487 54.157C89.6224 54.209 88.1993 54.1046 87.9899 54.0522C87.7805 53.9998 86.9899 54.037 86.6437 54.0874C86.2274 54.1478 86.8999 60.3138 86.8743 72.5321C86.848 84.7508 86.8612 90.9258 86.913 91.0564C86.9662 91.1877 86.9662 91.9464 86.913 93.3327C86.8905 93.9246 86.9305 94.9433 86.7255 95.1189C86.5537 95.2664 85.598 95.4371 84.8337 95.4521C83.4987 95.4783 82.5962 95.5564 82.1249 95.6877C81.6543 95.8183 80.8962 95.9496 79.8493 96.0796C78.8024 96.2108 78.1355 96.3283 77.8474 96.4333C77.5599 96.5377 76.9705 96.5639 76.8662 96.6689C76.7618 96.7733 76.6705 96.7996 76.5918 96.7477C76.513 96.6952 76.3824 96.7077 76.1993 96.7865C76.0162 96.8652 75.8587 96.8914 75.728 96.8652C75.5974 96.8389 75.1655 96.8777 74.433 96.9827C73.7005 97.0877 73.308 97.1658 73.2562 97.2183C73.203 97.2708 72.9287 97.3096 72.4318 97.3358C71.9343 97.3621 71.6724 97.4015 71.6468 97.4533C71.6205 97.5064 71.3062 97.5452 70.7049 97.5714C70.1024 97.5977 69.6843 97.6496 69.4493 97.7283C69.213 97.8064 68.533 97.8983 68.5462 97.9252C67.3949 97.9377 66.2437 97.9508 65.0924 97.964C62.7905 97.9902 61.5735 98.0296 61.4427 98.0814C61.3771 98.1077 61.3115 98.1339 61.2463 98.1602C61.2463 98.1339 61.2463 98.1077 61.2463 98.0814C61.2463 98.0552 61.2463 98.0296 61.2463 98.0027C61.0499 98.0164 60.8539 98.0296 60.6579 98.0427C60.2651 98.0683 59.7551 98.0427 59.1275 97.964C58.4995 97.8852 57.6359 97.8465 56.5367 97.8465C55.4379 97.8465 54.8495 97.8064 54.7707 97.7283C54.6923 97.6496 54.6659 96.1977 54.6923 93.3721C54.7055 91.9596 54.7183 90.5464 54.7319 89.1339C57.3611 89.1339 59.9907 89.1339 62.6199 89.1339C67.8793 89.1339 70.1424 88.9464 70.3124 88.8952C70.488 88.8427 70.2924 88.2402 70.3062 88.0577C68.9849 88.0308 67.9443 87.9827 66.623 87.9564C63.9805 87.9039 62.3323 87.9039 61.6779 87.9564C61.0239 88.0083 60.0823 88.0215 58.8523 87.9952C57.6227 87.969 56.9555 87.9827 56.8507 88.034C56.7463 88.0871 56.3671 88.0864 55.7127 88.034C55.5119 88.0183 55.0371 88.1871 54.8979 87.8615C54.5831 87.124 54.7319 85.2552 54.7319 82.9327C54.7319 81.2583 54.7319 79.5839 54.7319 77.9089C55.5167 77.8964 56.3015 77.8827 57.0859 77.8696C58.6563 77.844 59.3383 77.7946 59.4691 77.7421C59.5999 77.6896 59.5591 77.4664 59.5591 77.3352C59.5591 77.2046 59.5723 77.1283 59.5199 76.9977C59.4675 76.8664 58.8523 76.8627 57.2043 76.8102C56.4795 76.7877 55.0759 76.9527 54.8275 76.8602C54.5763 76.7664 54.7319 73.9052 54.7319 72.2183C54.7319 69.2096 54.7183 67.6658 54.6923 67.5877C54.6659 67.5089 54.4567 67.4564 54.0643 67.4308C53.8683 67.4177 53.6719 67.4039 53.4759 67.3914C53.4759 72.1664 53.4759 76.9408 53.4759 81.7164C53.4759 86.4908 53.4759 91.2658 53.4759 96.0408C53.3447 95.9883 53.2139 95.9364 53.0831 95.8839C52.8215 95.7789 52.5859 95.6352 52.3767 95.4521C52.1671 95.269 52.0235 95.1902 51.9451 95.2164C51.9059 95.2296 51.8667 95.2427 51.8275 95.2558C51.8143 95.2039 51.8015 95.1508 51.7879 95.099C51.7619 94.9946 51.5527 94.824 51.1599 94.5883C50.7679 94.3527 50.5715 94.1827 50.5715 94.0783C50.5715 93.9739 50.4275 93.8296 50.1399 93.6471C49.8519 93.4633 49.6555 93.2933 49.5507 93.1365C49.4463 92.9796 49.1587 92.7177 48.6875 92.3521C48.2167 91.9852 47.6947 91.6864 47.6683 91.5815C47.6423 91.4764 47.3007 91.3446 46.8827 91.0564C46.4639 90.769 46.0059 90.5464 45.5087 90.3896C45.0119 90.2321 44.3839 90.1539 43.6247 90.1539C42.8663 90.1539 42.4711 90.2664 42.3295 90.3108C42.0767 90.3908 41.6219 90.6427 41.5059 90.7033C41.2487 90.8371 40.9431 91.2658 40.8383 91.2921C40.7339 91.3183 40.6551 91.4096 40.6031 91.5664C40.5503 91.7239 40.4851 91.8152 40.4067 91.8414C40.3283 91.8677 39.9753 91.4096 39.3474 90.4677C38.7194 89.5258 38.2614 88.9108 37.9734 88.6233C37.6859 88.3352 37.4501 88.1527 37.2672 88.0739C37.0839 87.9952 36.9792 87.9165 36.9532 87.8383C36.9269 87.7596 36.6782 87.6289 36.2074 87.4458C35.7365 87.2627 35.4749 87.1839 35.4225 87.2108C35.3964 87.2233 35.3702 87.2365 35.344 87.2496C35.331 87.2233 35.3179 87.1971 35.3047 87.1708C35.2786 87.119 34.9908 87.1058 34.4414 87.1321C33.8919 87.1583 33.4602 87.2364 33.1463 87.3677C32.8323 87.4983 32.5837 87.4458 32.4006 87.2108C32.2175 86.9752 32.0735 86.8577 31.9689 86.8577C31.9165 86.8577 31.668 86.5177 31.3802 86.3077C31.0924 86.0983 30.7392 85.9152 30.3205 85.7583C29.9019 85.6014 29.4964 85.5096 29.104 85.4839C28.7114 85.4577 28.1751 85.5621 27.4949 85.7977C26.8145 86.0327 26.396 86.2421 26.239 86.4258C26.082 86.6083 25.9643 86.8308 25.8857 87.0927C25.8073 87.3546 25.7942 87.7471 25.8465 88.2702C25.8989 88.7933 25.9643 89.1202 26.0427 89.2514C26.1212 89.3821 26.3698 90.3764 26.4744 90.6639C26.579 90.9521 26.6706 91.1083 26.7492 91.1352C26.8276 91.1608 26.88 91.3183 26.9062 91.6065C26.9323 91.894 26.9846 92.0902 27.0632 92.1946C27.1416 92.2996 27.207 92.4958 27.2594 92.7833C27.3117 93.0714 27.5472 93.3721 27.5341 93.4114C27.5079 93.4896 27.5341 93.6339 27.6125 93.8433C27.6518 93.9477 27.691 94.0521 27.7303 94.1571C27.2594 94.0265 26.7884 93.8952 26.3174 93.7646C25.3755 93.5027 24.6299 93.3721 24.0804 93.3721C23.531 93.3721 23.217 93.4114 23.1385 93.4896C23.06 93.5683 22.9685 93.5946 22.8638 93.5683C22.7592 93.5421 22.6937 93.5552 22.6676 93.6077C22.6414 93.6596 22.5367 93.6996 22.3536 93.7252C22.1704 93.7514 22.0658 93.8039 22.0397 93.8821C22.0134 93.9608 21.9088 94.0521 21.7257 94.1571C21.5425 94.2621 21.464 94.3402 21.4902 94.3927C21.5164 94.4446 21.464 94.5364 21.3332 94.6671C21.2024 94.7983 21.137 94.9808 21.137 95.2164C21.137 95.4521 21.1108 95.5827 21.0585 95.6089C21.0062 95.6352 20.98 95.7658 20.98 96.0021C20.98 96.2371 21.0192 96.4596 21.0977 96.6689C21.1762 96.8783 21.4902 98.2383 21.5687 98.2383C21.6472 98.2383 21.7257 98.3821 21.8042 98.6702C21.8827 98.9577 22.0134 99.1677 22.1966 99.2983C22.3797 99.4289 22.4583 99.5208 22.432 99.5727C22.419 99.5996 22.406 99.6252 22.3929 99.6515C22.4452 99.6777 22.4975 99.7039 22.5499 99.7296C22.6545 99.7821 22.7199 99.8739 22.746 100.005C22.7722 100.135 22.9161 100.318 23.1777 100.554C23.4394 100.79 23.5702 100.946 23.5702 101.025C23.5702 101.103 23.6225 101.156 23.7272 101.182C23.8319 101.208 24.0019 101.378 24.2374 101.693C24.4729 102.006 24.7476 102.281 25.0616 102.516C25.3755 102.752 25.5849 102.948 25.6895 103.105C25.7942 103.262 25.8989 103.353 26.0035 103.38C26.1082 103.406 26.1735 103.471 26.1997 103.576C26.2259 103.681 26.3567 103.851 26.5922 104.086C26.8277 104.322 26.9977 104.453 27.1024 104.478C27.207 104.505 27.364 104.636 27.5733 104.871C27.7826 105.106 27.9135 105.211 27.9658 105.185C27.992 105.172 28.0181 105.159 28.0443 105.146C28.0574 105.211 28.0704 105.276 28.0835 105.342C28.1097 105.473 28.2013 105.578 28.3582 105.656C28.5152 105.735 28.9207 106.114 29.5749 106.794C30.229 107.475 30.5822 107.801 30.6345 107.775C30.6607 107.763 30.6869 107.749 30.713 107.736C30.713 107.763 30.713 107.788 30.713 107.814C30.713 107.867 30.7653 107.906 30.87 107.933C30.9746 107.958 31.0269 108.011 31.0269 108.09C31.0269 108.168 31.1055 108.286 31.2624 108.442C31.4194 108.6 31.5895 108.704 31.7727 108.756C31.9557 108.809 32.0866 108.914 32.165 109.07C32.2436 109.228 32.623 109.568 33.3032 110.091C33.9835 110.614 34.3629 110.941 34.4414 111.072C34.5199 111.203 34.5984 111.268 34.6769 111.268C34.7554 111.268 34.8207 111.321 34.873 111.425C34.9254 111.53 35.0039 111.595 35.1085 111.621C35.2132 111.648 35.2917 111.713 35.344 111.818C35.3964 111.922 35.4617 111.975 35.5403 111.975C35.6187 111.975 35.7627 112.08 35.972 112.288C36.1813 112.498 36.3513 112.615 36.4822 112.642C36.6129 112.668 36.6782 112.72 36.6782 112.799C36.6782 112.878 37.5677 113.335 39.3474 114.173C41.1263 115.01 42.1467 115.454 42.4083 115.507C42.6699 115.559 42.9575 115.663 43.2715 115.821C43.5855 115.978 45.7571 116.906 46.0191 117.038C46.2807 117.168 47.1571 117.521 48.6483 118.097C50.1399 118.673 50.9115 119 50.9643 119.078C51.0159 119.156 51.4215 119.38 52.1807 119.745C52.9391 120.112 54.3391 120.871 54.3391 120.923C54.3391 120.949 54.3391 120.975 54.3391 121.001C54.3651 120.988 54.3915 120.975 54.4179 120.962C54.4439 120.949 54.4695 120.936 54.4959 120.923C54.5091 120.962 54.5223 121.001 54.5355 121.041C54.5615 121.119 54.7835 121.263 55.2023 121.473C55.6211 121.682 55.9219 121.878 56.1051 122.061C56.2883 122.244 56.5367 122.414 56.8507 122.571C57.1647 122.728 57.3347 122.846 57.3611 122.924C57.3871 123.003 57.5439 123.108 57.8319 123.238C58.1195 123.37 58.2635 123.461 58.2635 123.513C58.2635 123.565 58.3815 123.656 58.6171 123.788C58.8523 123.918 58.9963 123.971 59.0487 123.945C59.1011 123.918 59.2319 123.984 59.4411 124.141C59.6507 124.298 60.4091 124.494 60.4615 124.573C60.5139 124.651 60.6839 124.69 60.9719 124.69C61.2595 124.69 61.4163 124.716 61.4427 124.768C61.4687 124.821 61.8615 124.9 62.6199 125.004C63.3787 125.109 64.8437 125.188 67.0155 125.24C69.1874 125.292 70.3255 125.345 70.4305 125.396C70.5349 125.45 70.7699 125.475 71.1362 125.475C71.5024 125.475 71.6993 125.45 71.7249 125.396C71.738 125.371 71.7518 125.345 71.7643 125.318C71.8037 125.345 71.8424 125.371 71.8818 125.396C71.9605 125.45 73.7524 125.45 77.2587 125.396C80.7649 125.345 82.5568 125.345 82.6355 125.396C82.7137 125.45 82.8974 125.462 83.1849 125.436C83.4724 125.41 83.9962 125.462 84.7549 125.593C85.5137 125.724 85.9712 125.79 86.1287 125.79C86.2068 125.79 86.2849 125.79 86.3637 125.79C86.3381 125.763 86.3118 125.737 86.2849 125.711C86.2593 125.685 86.233 125.658 86.2068 125.632C86.2462 125.632 86.2849 125.632 86.3243 125.632C86.3637 125.632 86.403 125.632 86.4424 125.632C86.4424 125.658 86.4424 125.685 86.4424 125.711C86.4424 125.763 86.6255 125.828 86.9918 125.907C87.358 125.986 88.0518 126.064 89.0718 126.143C90.0918 126.221 90.6287 126.286 90.6805 126.338C90.7337 126.391 91.008 126.404 91.5049 126.378C92.0024 126.352 92.2768 126.365 92.3293 126.418C92.3818 126.47 93.1662 126.456 94.6837 126.378C96.2018 126.3 97.5362 126.143 98.6874 125.907C99.8387 125.672 100.532 125.488 100.767 125.358C101.002 125.226 101.225 125.148 101.434 125.122C101.644 125.096 101.774 125.044 101.827 124.965C101.879 124.886 101.971 124.848 102.102 124.848C102.167 124.848 102.232 124.848 102.297 124.848C102.297 124.821 102.297 124.795 102.297 124.768C102.297 124.743 102.297 124.716 102.297 124.69C102.363 124.69 102.429 124.69 102.494 124.69C102.625 124.69 102.769 124.612 102.926 124.455C103.082 124.298 103.226 124.22 103.357 124.22C103.488 124.22 103.632 124.141 103.789 123.984C103.946 123.827 104.09 123.735 104.221 123.709C104.352 123.683 104.679 123.448 104.731 123.317C104.783 123.186 104.888 123.108 105.045 123.081C105.202 123.055 105.359 122.833 105.398 122.846C105.437 122.859 105.777 122.545 105.791 122.493C105.817 122.388 105.882 122.323 105.987 122.296C106.092 122.27 106.17 122.192 106.222 122.061C106.274 121.93 106.392 121.812 106.576 121.708C106.759 121.603 106.837 121.524 106.811 121.473C106.798 121.446 106.785 121.42 106.772 121.394C106.798 121.394 106.824 121.394 106.851 121.394C106.902 121.394 106.942 121.328 106.968 121.198C106.994 121.066 107.099 120.923 107.282 120.766C107.465 120.608 107.596 120.531 107.674 120.531C107.697 120.531 107.904 120.196 108.166 119.756C108.354 119.44 108.612 118.998 108.656 118.921C108.761 118.738 108.799 118.608 108.773 118.528C108.747 118.45 108.826 118.241 109.009 117.901C109.192 117.561 109.271 117.351 109.244 117.273C109.218 117.195 109.244 117.128 109.322 117.077C109.401 117.024 109.492 116.763 109.597 116.291C109.702 115.821 109.767 115.324 109.794 114.8C109.82 114.277 109.977 113.034 109.951 112.014C109.924 110.993 109.807 109.921 109.597 108.796C109.388 107.671 109.205 106.951 109.048 106.638C108.891 106.323 108.826 106.114 108.852 106.01C108.878 105.905 108.564 105.329 107.91 104.283C107.256 103.236 106.549 102.36 105.791 101.653C105.032 100.946 104.482 100.502 104.142 100.318C103.802 100.135 103.606 99.9914 103.554 99.8871C103.502 99.7821 103.371 99.6646 103.161 99.5333C102.952 99.4027 102.795 99.3377 102.691 99.3377C102.586 99.3377 102.507 99.2983 102.455 99.2196C102.402 99.1414 101.918 98.8665 101.002 98.3952C100.087 97.9252 99.053 97.4796 97.9018 97.0608C97.2918 96.8396 96.4187 96.4271 96.1249 96.3658C96.0049 96.3408 96.1755 94.8971 96.1755 94.1964C96.1755 92.7052 96.2018 91.8283 96.2537 91.5664C96.3062 91.3052 96.3324 90.5596 96.3324 89.3296C96.3324 88.1002 96.3062 87.4196 96.2537 87.2889C96.2018 87.1583 96.2018 87.0408 96.2537 86.9358C96.3062 86.8314 96.293 86.4515 96.2143 85.7977C96.1362 85.1433 96.1099 83.9271 96.1362 82.1477C96.1624 80.3683 96.1493 79.4396 96.0968 79.3614C96.0449 79.2827 96.0449 79.2039 96.0968 79.1258C96.1493 79.0477 96.1755 78.4327 96.1755 77.2814C96.1755 76.7052 96.1755 76.1296 96.1755 75.5539C96.1493 75.5539 96.123 75.5539 96.0968 75.5539C96.0705 75.5539 96.0449 75.5539 96.018 75.5539C96.0449 75.5415 96.0705 75.5283 96.0968 75.5152C96.1493 75.4889 96.1755 75.1483 96.1755 74.4952C96.1755 73.8408 96.1493 73.4739 96.0968 73.3958C96.0449 73.3177 96.0449 73.2258 96.0968 73.1215C96.1493 73.0164 96.1493 72.8727 96.0968 72.6896C96.0449 72.5064 96.0449 72.3358 96.0968 72.1796C96.1493 72.0227 96.1493 69.3796 96.0968 64.2514C96.0449 59.1234 96.0574 56.4942 96.1362 56.363C96.2143 56.2322 96.2274 56.0362 96.1755 55.7742C96.1493 55.6438 96.123 55.5126 96.0968 55.3818C96.2274 55.3818 96.358 55.3818 96.4893 55.3818C96.7512 55.3818 96.9212 55.3558 96.9993 55.3034C97.078 55.251 97.6668 55.2642 98.7655 55.3426C99.8643 55.421 101.107 55.4606 102.494 55.4606C103.881 55.4606 104.587 55.4346 104.614 55.3818C104.639 55.3298 104.757 55.3166 104.967 55.3426C105.072 55.3558 105.176 55.3686 105.281 55.3818C105.281 55.3558 105.281 55.3298 105.281 55.3034C105.281 55.277 105.281 55.251 105.281 55.225C105.372 55.2382 105.464 55.251 105.555 55.2642C105.738 55.2906 105.882 55.277 105.987 55.225C106.039 55.1986 106.092 55.1726 106.144 55.1466C106.157 55.1726 106.17 55.1986 106.183 55.225C106.209 55.277 106.484 55.3034 107.007 55.3034C107.531 55.3034 107.871 55.277 108.027 55.225C108.185 55.1726 109.114 55.1726 110.814 55.225C112.515 55.277 113.574 55.2382 113.993 55.107C114.412 54.9766 114.752 54.7802 115.014 54.5186C115.275 54.257 115.458 53.9822 115.562 53.6942C115.667 53.4066 115.72 53.0534 115.72 52.6346C115.72 52.2162 115.681 51.981 115.602 51.9282C115.524 51.8762 115.471 51.7322 115.445 51.4966C115.419 51.2614 115.249 50.9342 114.935 50.5158C114.621 50.097 114.359 49.8218 114.15 49.6914C113.941 49.5602 113.705 49.4558 113.444 49.3774C113.182 49.2986 113.012 49.2858 112.934 49.3382C112.855 49.3902 112.777 49.3902 112.698 49.3382C112.619 49.2858 112.057 49.325 111.952 49.3382C111.952 49.3122 111.874 49.207 111.835 49.2206C111.756 49.2462 111.625 49.207 111.442 49.1022C111.259 48.9982 111.115 48.9718 111.011 49.0242C110.958 49.0506 110.906 48.9458 110.854 48.9718C110.866 48.933 110.879 49.0242 110.892 48.9846C110.919 48.9066 110.788 48.7366 110.5 48.4746C110.212 48.213 110.016 47.9774 109.912 47.7682C109.807 47.559 109.676 47.3758 109.519 47.2186C109.362 47.0618 109.114 46.9178 108.773 46.787C108.433 46.6562 108.263 46.5646 108.263 46.5122C108.263 46.4602 107.923 46.3294 107.242 46.1202C106.562 45.9106 105.817 45.819 105.006 45.845C104.195 45.8714 103.632 45.845 103.318 45.7666C103.004 45.6882 102.716 45.5442 102.455 45.3346C102.192 45.1254 102.049 44.9426 102.022 44.7854C101.997 44.6286 101.853 44.4194 101.591 44.1574C101.329 43.8958 101.212 43.7126 101.238 43.6082C101.264 43.5038 101.068 43.2418 100.649 42.823C100.231 42.4046 99.7993 42.0646 99.3543 41.803C98.9093 41.541 98.3474 41.2794 97.6668 41.0178C96.9862 40.7562 96.358 40.5598 95.7824 40.4294C95.2074 40.2982 94.5137 40.233 93.7024 40.233C92.8918 40.233 92.1593 40.3246 91.5049 40.5074C90.8512 40.691 90.498 40.8214 90.4455 40.9002C90.393 40.9786 90.3018 41.0178 90.1705 41.0178C90.0399 41.0178 89.9618 41.0574 89.9349 41.1354C89.9093 41.2142 89.8049 41.2666 89.6212 41.2926C89.438 41.319 89.2812 41.253 89.1505 41.0966C89.0193 40.939 88.9018 40.8478 88.7968 40.8214C88.6924 40.7954 88.5749 40.4818 88.4437 40.3506C88.313 40.2198 88.1955 40.1546 88.0905 40.1546C87.9862 40.1546 87.8818 40.0758 87.7768 39.919C87.6718 39.762 87.5018 39.605 87.2662 39.448C87.0312 39.2911 85.8924 38.5323 85.5793 38.4276C85.2649 38.323 84.9637 38.166 84.6762 37.9567C84.388 37.7474 84.0874 37.6035 83.7737 37.5249C83.4593 37.4465 83.2637 37.3549 83.1849 37.2503C83.1068 37.1456 82.8449 37.0409 82.3999 36.9363C81.9555 36.8316 81.6543 36.727 81.4974 36.6223C81.3405 36.5177 81.2099 36.4784 81.1049 36.5046C81.0005 36.5308 80.9218 36.5046 80.8693 36.4261C80.8174 36.3476 80.1237 36.2037 78.7893 35.9944C77.4549 35.7851 76.3168 35.6804 75.3749 35.6804C74.433 35.6804 73.4649 35.7458 72.4705 35.8767C71.4768 36.0074 70.4305 36.2429 69.3305 36.5831C68.2324 36.9233 67.3293 37.2764 66.623 37.6427C65.9168 38.009 65.5118 38.1006 65.4068 37.9174C65.3018 37.7343 65.1837 37.5773 65.0537 37.4465C64.9224 37.3157 64.8174 37.2503 64.7393 37.2503C64.6605 37.2503 64.608 37.1979 64.5824 37.0933C64.5562 36.9886 64.4905 36.9233 64.3862 36.897C64.2818 36.8709 64.1637 36.7663 64.0324 36.5831C63.9024 36.3999 63.7974 36.3084 63.7187 36.3084C63.6405 36.3084 63.5487 36.2429 63.4443 36.1121C63.3393 35.9813 63.2218 35.9159 63.0905 35.9159C62.9605 35.9159 62.8555 35.8504 62.7768 35.7197C62.6987 35.5888 62.528 35.458 62.2671 35.3272C62.0051 35.1964 61.6779 35.0918 61.2859 35.0133C60.8931 34.9348 60.6579 34.8563 60.5791 34.7778C60.5007 34.6993 60.2391 34.6469 59.7943 34.6208C59.3495 34.5946 59.1139 34.5554 59.0879 34.503C59.0615 34.4507 58.6695 34.4246 57.9103 34.4246C57.1519 34.4246 56.7331 34.4638 56.6543 34.5423ZM37.3455 43.8438C37.3195 44.0006 37.4242 44.1318 37.6594 44.2362C37.8951 44.341 39.138 44.3798 41.3875 44.3538C43.6383 44.3274 44.8547 44.2754 45.0375 44.197C45.1295 44.1574 45.2211 44.1182 45.3127 44.079C45.2599 44.0006 45.2079 43.9222 45.1555 43.8438C45.0511 43.6866 43.7295 43.6082 41.1919 43.6082C38.6537 43.6082 37.3719 43.6866 37.3455 43.8438ZM47.4319 53.8118C46.5947 54.649 46.1367 55.0678 46.0583 55.0678C45.9795 55.0678 45.8491 55.1858 45.6655 55.421C45.4827 55.6566 45.2863 55.8266 45.0771 55.9314C44.8679 56.0362 44.6455 56.2322 44.4099 56.5198C44.1743 56.8078 44.0175 56.9514 43.9387 56.9514C43.8607 56.9514 43.7167 57.0562 43.5071 57.2654C43.2979 57.475 43.1931 57.6322 43.1931 57.737C43.1931 57.8414 43.2455 57.9198 43.3503 57.9722C43.4547 58.0246 43.6119 58.0114 43.8211 57.933C44.0303 57.8546 44.3051 57.6322 44.6455 57.2654C44.9855 56.8998 45.3387 56.5858 45.7051 56.3238C46.0711 56.0626 46.4899 55.6698 46.9607 55.1466C47.4319 54.623 47.7587 54.3094 47.9419 54.2046C48.1251 54.0998 48.3867 53.8778 48.7271 53.5374C49.0671 53.1974 49.2367 52.9486 49.2367 52.7918C49.2367 52.7134 49.2367 52.6346 49.2367 52.5562C49.1455 52.5562 49.0539 52.5562 48.9623 52.5562C48.7795 52.5562 48.2691 52.9746 47.4319 53.8118ZM28.947 86.3077C29.4964 86.3596 29.9674 86.504 30.3598 86.7396C30.7522 86.9752 30.9616 87.1321 30.9877 87.2108C31.0009 87.2496 31.447 87.4639 31.7235 87.7408C31.9964 88.0133 32.1497 88.2508 32.1757 88.3283C32.228 88.4852 32.9631 89.3165 33.0677 89.3689C33.1724 89.4215 33.2116 89.4865 33.1855 89.5652C33.1593 89.6433 33.1986 89.7096 33.3032 89.7621C33.4079 89.8133 33.4602 89.9052 33.4602 90.0364C33.4602 90.1671 33.4995 90.2452 33.578 90.2715C33.6565 90.2977 33.748 90.4808 33.8527 90.8208C33.9574 91.1608 34.6507 92.8352 34.9908 93.4896C35.3309 94.1439 35.5272 94.4708 35.5795 94.4708C35.6319 94.4708 35.6842 94.5627 35.7365 94.7458C35.7889 94.9283 36.142 95.3214 36.7962 95.9227C37.4501 96.5252 37.9475 97.0483 38.2874 97.4927C38.6277 97.9377 38.837 98.1602 38.9153 98.1602C38.9547 98.1602 38.994 98.1602 39.0334 98.1602C39.02 98.2127 39.007 98.2646 38.994 98.3171C38.9676 98.4221 39.007 98.5008 39.1116 98.5527C39.2163 98.6046 39.3473 98.7883 39.5039 99.1021C39.6613 99.4158 39.779 99.5727 39.8572 99.5727C39.9359 99.5727 40.0927 99.8221 40.3283 100.318C40.5639 100.816 40.7599 101.13 40.9171 101.261C41.0739 101.391 41.1395 101.496 41.1131 101.574C41.0999 101.614 41.0871 101.653 41.0739 101.693C41.1263 101.693 41.1783 101.693 41.2311 101.693C41.3355 101.693 41.4011 101.771 41.4271 101.928C41.4535 102.085 41.5839 102.255 41.8199 102.438C42.0551 102.621 42.6571 102.896 43.6247 103.262C44.5931 103.628 45.1687 104.06 45.3515 104.557C45.4435 104.806 45.5351 105.055 45.6267 105.303C45.5479 105.264 45.4691 105.224 45.3911 105.185C45.2339 105.106 44.6059 104.858 44.4883 104.832C44.2527 104.78 44.1091 104.714 44.0567 104.636C44.0039 104.557 43.3371 104.4 43.3107 104.322C43.2847 104.243 43.1671 104.152 42.9575 104.046C42.7483 103.942 42.4607 103.825 42.0943 103.694C41.7279 103.563 41.3747 103.393 41.0347 103.183C40.6943 102.974 40.4723 102.87 40.3675 102.87C40.2627 102.87 40.1847 102.83 40.1319 102.752C40.0799 102.673 40.0143 102.648 39.9359 102.673C39.8572 102.7 39.622 102.516 39.2293 102.124C38.837 101.731 38.5754 101.535 38.4444 101.535C38.379 101.535 38.3137 101.535 38.248 101.535C38.248 101.496 38.248 101.456 38.248 101.418C38.248 101.339 38.078 101.143 37.7382 100.829C37.3978 100.515 37.1885 100.358 37.1102 100.358C37.0315 100.358 36.9792 100.318 36.9532 100.24C36.9269 100.161 36.7045 100.005 36.286 99.7696C35.8673 99.5333 35.6449 99.3764 35.6187 99.2983C35.5926 99.2196 35.5403 99.1808 35.4617 99.1808C35.3833 99.1808 35.2655 99.1021 35.1085 98.9452C34.9515 98.7883 34.7684 98.6833 34.5591 98.6308C34.3498 98.5783 34.1535 98.4608 33.9704 98.2777C33.7873 98.0946 33.6303 97.9902 33.4995 97.964C33.3686 97.9377 33.2116 97.8465 33.0285 97.6889C32.8454 97.5321 32.6753 97.4408 32.5183 97.4146C32.3614 97.3883 32.2829 97.3358 32.2829 97.2577C32.2829 97.1789 32.1913 97.1008 32.0081 97.0221C31.825 96.9433 31.5895 96.7602 31.3017 96.4727C31.0139 96.1846 30.7784 96.0021 30.5952 95.9227C30.4122 95.8446 30.3075 95.7658 30.2813 95.6877C30.2552 95.609 29.9935 95.4389 29.4964 95.1777C28.9993 94.9158 28.6722 94.5102 28.5152 93.9608C28.3582 93.4115 28.0704 92.5221 27.9658 92.3908C27.8611 92.2596 27.8219 92.1421 27.848 92.0377C27.8742 91.9327 27.7957 91.6977 27.6125 91.3315C27.4294 90.9652 27.3379 90.7033 27.3379 90.5464C27.3379 90.3896 26.9323 89.1465 26.7492 88.7021C26.566 88.2571 26.5267 87.8121 26.6314 87.3677C26.736 86.9227 27.0109 86.6221 27.4555 86.4646C27.9004 86.3077 28.3975 86.2558 28.947 86.3077ZM34.2452 87.9564C34.2582 87.9827 34.2713 88.0083 34.2844 88.034C34.3105 88.0864 34.546 88.1527 34.9908 88.2308C35.4356 88.3096 35.9066 88.5058 36.4036 88.8196C36.9009 89.1339 37.3455 89.5127 37.7382 89.9577C38.1304 90.4027 38.549 90.9521 38.994 91.6065C39.4386 92.2596 39.7002 92.6002 39.779 92.6264C39.8572 92.6527 39.9619 92.8096 40.0927 93.0977C40.2235 93.3852 41.2443 94.3008 41.2699 94.4321C41.2963 94.5627 41.8719 94.9552 42.9967 95.6089C44.1223 96.2633 44.8679 96.7339 45.2339 97.0221C45.6003 97.3096 45.7967 97.5064 45.8227 97.6108C45.8491 97.7152 45.9931 97.8983 46.2547 98.1602C46.5159 98.4221 46.8563 98.6439 47.2747 98.8277C47.4843 98.9183 47.6935 99.0102 47.9027 99.1021C47.8763 99.1414 47.8503 99.1808 47.8243 99.2196C47.7719 99.2983 47.6803 99.3508 47.5495 99.3764C47.4187 99.4027 47.3403 99.4552 47.3143 99.5333C47.2879 99.6121 47.2355 99.6515 47.1571 99.6515C47.0783 99.6515 45.7967 101.261 45.6655 101.496C45.5351 101.731 45.4303 102.045 45.3515 102.438C45.3127 102.634 45.2735 102.83 45.2339 103.026C45.0511 102.974 44.8679 102.922 44.6847 102.87C44.3179 102.765 43.8211 102.556 43.1931 102.242C42.5651 101.928 42.1467 101.588 41.9375 101.221C41.7279 100.855 40.5639 99.3377 40.5243 99.3377C40.5375 99.2983 40.5503 99.0102 40.4459 98.8277C40.3411 98.6439 40.2235 98.5008 40.0927 98.3952C39.9619 98.2908 39.8313 98.1208 39.7002 97.8852C39.5696 97.6496 39.4386 97.4927 39.308 97.4146C39.177 97.3358 39.0987 97.2308 39.0723 97.1008C39.0464 96.9696 38.68 96.5777 37.9734 95.9227C37.2672 95.2689 36.8356 94.7852 36.6782 94.4708C36.5214 94.1571 36.4167 93.9996 36.3644 93.9996C36.3383 93.9996 36.3121 93.9996 36.286 93.9996C36.299 93.974 36.3121 93.9477 36.3252 93.9214C36.3513 93.8689 36.3121 93.7777 36.2074 93.6471C36.1028 93.5158 36.0243 93.3196 35.972 93.0577C35.9196 92.7964 35.8542 92.6396 35.7757 92.5877C35.6973 92.5346 35.658 92.4433 35.658 92.3121C35.658 92.1821 35.174 91.5539 35.1478 91.3708C35.1217 91.1877 34.8077 90.4808 34.6769 90.3502C34.546 90.2189 34.4545 90.0496 34.4021 89.8396C34.3498 89.6308 34.2713 89.5127 34.1666 89.4864C34.062 89.4608 33.9574 89.3165 33.8527 89.0552C33.748 88.7933 33.6565 88.6496 33.578 88.6233C33.4995 88.5971 33.4472 88.5183 33.4209 88.3877C33.4079 88.3227 33.3949 88.2571 33.3817 88.1921C33.4995 88.1921 33.6172 88.1921 33.7349 88.1921C33.9704 88.1921 34.1143 88.1527 34.1666 88.0739C34.1929 88.0346 34.219 87.9952 34.2452 87.9564ZM43.7035 91.0958C44.1483 91.1483 44.3839 91.1483 44.4099 91.0958C44.4231 91.0696 44.5015 91.0958 44.5275 91.1352C44.5803 91.2133 44.8415 91.3052 45.3127 91.4096C45.5479 91.4621 45.9931 91.6189 45.9795 91.6452C45.9535 91.6977 46.1887 91.8546 46.6863 92.1158C47.1831 92.3783 47.4579 92.5608 47.5103 92.6658C47.5627 92.7702 47.7327 92.9014 48.0203 93.0577C48.3083 93.2152 48.8051 93.6471 49.5119 94.3527C50.2183 95.0596 50.8723 95.6089 51.4739 96.0021C52.0759 96.3939 52.5339 96.6427 52.8479 96.7477C53.1619 96.8521 53.3579 96.9433 53.4367 97.0221C53.5147 97.1008 53.5411 97.2446 53.5147 97.4533C53.4887 97.6627 53.1355 97.7808 52.4551 97.8064C51.7751 97.8327 51.0159 97.9508 50.1787 98.1602C49.3415 98.3696 48.6355 98.3564 48.0599 98.1208C47.4843 97.8852 46.8431 97.4146 46.1367 96.7077C45.4303 96.0021 44.9595 95.5696 44.7239 95.4127C44.4883 95.2558 43.5987 94.7458 43.3107 94.6671C43.0231 94.5889 42.8399 94.4971 42.7615 94.3927C42.6831 94.2877 42.5783 94.2352 42.4475 94.2352C42.3167 94.2352 42.0683 94.039 41.7015 93.6471C41.3355 93.254 41.1263 92.9402 41.0739 92.7052C41.0219 92.4696 41.0479 92.2471 41.1523 92.0377C41.2571 91.8283 41.5711 91.5277 41.5451 91.4883C41.5839 91.4621 41.6235 91.4365 41.6627 91.4096C41.7411 91.3577 42.0043 91.2533 42.1211 91.1889C42.2375 91.1252 42.4079 91.0783 42.6171 90.9739C42.8267 90.8696 43.2587 91.0433 43.7035 91.0958ZM24.7084 94.4708C25.5194 94.5758 26.3698 94.8108 27.2594 95.1777C28.1489 95.5439 28.6199 95.714 28.6722 95.6877C28.7245 95.6615 29.7057 96.2502 29.7319 96.3552C29.758 96.4596 29.9935 96.6689 30.4383 96.9827C30.883 97.2971 31.1185 97.4927 31.1447 97.5714C31.1709 97.6496 31.2494 97.7021 31.3802 97.7283C31.511 97.7546 31.6026 97.8202 31.6549 97.9252C31.7072 98.0296 31.825 98.1077 32.0081 98.1602C32.1913 98.2127 32.2829 98.2777 32.2829 98.3564C32.2829 98.4346 32.4006 98.5133 32.636 98.5921C32.8715 98.6702 34.6899 99.8608 35.5795 100.436C36.469 101.012 37.0449 101.444 37.3061 101.731C37.5682 102.02 37.8034 102.228 38.0127 102.36C38.222 102.49 38.3527 102.543 38.4054 102.516C38.4314 102.503 38.4577 102.49 38.4837 102.477C38.4707 102.503 38.4577 102.53 38.4444 102.556C38.4184 102.608 38.51 102.739 38.7194 102.948C38.9287 103.158 39.138 103.328 39.3474 103.458C39.5566 103.59 39.9095 103.746 40.4067 103.929C40.9039 104.113 41.1523 104.23 41.1523 104.283C41.1523 104.335 41.3487 104.413 41.7411 104.518C42.1335 104.623 42.4211 104.741 42.6047 104.871C42.7875 105.002 42.9839 105.08 43.1931 105.106C43.4027 105.133 43.5071 105.172 43.5071 105.224C43.5071 105.276 43.6903 105.355 44.0567 105.46C44.4231 105.565 44.6455 105.656 44.7239 105.735C44.8023 105.813 44.9199 105.852 45.0771 105.852C45.2339 105.852 46.4111 106.31 46.5687 106.441C46.7251 106.572 47.2487 106.794 47.3531 106.951C47.4579 107.108 47.5495 107.186 47.6283 107.186C47.6671 107.186 47.7063 107.186 47.7459 107.186C47.7327 107.213 47.7199 107.24 47.7063 107.265C47.6935 107.291 47.6803 107.318 47.6671 107.344C47.8375 107.396 48.0075 107.448 48.1775 107.501C48.5175 107.605 48.7135 107.71 48.7663 107.814C48.8183 107.919 49.0015 107.998 49.3155 108.05C49.6295 108.103 49.8259 108.168 49.9043 108.246C49.9827 108.325 50.0611 108.351 50.1399 108.325C50.2183 108.298 50.3099 108.338 50.4143 108.442C50.5191 108.547 50.9771 108.704 51.7879 108.914C52.5991 109.123 53.4367 109.28 54.2999 109.384C55.1635 109.489 55.6079 109.568 55.6343 109.62C55.6603 109.672 55.8959 109.738 56.3407 109.816C56.7855 109.895 58.3555 110.117 59.0091 110.17C59.6635 110.221 60.1999 110.3 60.6183 110.405C61.0371 110.51 62.0315 110.614 63.6012 110.719C65.1712 110.823 66.6887 110.876 68.1537 110.876C69.6187 110.876 70.6524 110.902 71.2537 110.954C71.8562 111.007 72.4187 111.058 72.4705 111.033C72.4574 111.058 73.5174 111.504 74.0799 111.661C75.2049 111.975 76.2649 112.341 77.2587 112.76C78.253 113.178 79.0505 113.44 79.6524 113.545C80.2543 113.649 80.8299 113.688 81.3793 113.662C81.9293 113.636 82.2299 113.571 82.2824 113.466C82.3349 113.361 82.3218 113.256 82.2424 113.152C82.1649 113.047 82.0474 112.969 81.8893 112.916C81.8112 112.891 81.733 112.864 81.6543 112.838C81.6543 112.904 81.4843 112.786 81.3012 112.681C81.118 112.576 80.9218 112.524 80.7124 112.524C80.503 112.524 80.2024 112.446 79.8099 112.288C79.4174 112.132 79.1424 112.053 78.9855 112.053C78.8287 112.053 78.253 111.844 77.2587 111.425C76.2649 111.007 75.6493 110.784 75.4143 110.758C75.1787 110.732 75.0612 110.693 75.0612 110.64C75.0612 110.588 74.9955 110.535 74.8649 110.483C74.7337 110.431 74.5899 110.405 74.433 110.405C74.2762 110.405 74.0405 110.34 73.7262 110.208C73.4124 110.078 72.7062 109.934 71.6074 109.777C70.508 109.62 69.3837 109.555 68.2324 109.581C67.0812 109.607 65.6293 109.568 63.8762 109.463C62.1231 109.358 60.7883 109.214 59.8727 109.031C58.9571 108.848 58.3815 108.77 58.1459 108.796C57.9103 108.822 57.7275 108.796 57.5963 108.718C57.4659 108.638 57.3087 108.613 57.1255 108.638C57.0343 108.652 56.9427 108.665 56.8507 108.678C56.8507 108.652 55.0715 108.403 54.9671 108.325C54.8623 108.246 54.6139 108.194 54.2215 108.168C53.8287 108.142 53.0439 107.985 51.8667 107.696C50.6891 107.409 50.1007 107.24 50.1007 107.186C50.1007 107.135 50.0223 107.069 49.8647 106.991C49.7083 106.912 49.4331 106.807 49.0411 106.676C48.6483 106.545 48.4391 106.441 48.4131 106.363C48.3867 106.284 48.2819 106.245 48.0991 106.245C47.9159 106.245 47.7979 106.18 47.7459 106.048C47.7143 105.97 46.1967 104.688 46.1759 104.636C46.1235 104.505 46.0843 104.361 46.0583 104.204C46.0499 104.155 45.9627 103.846 46.0431 103.49C46.0923 103.273 46.2615 103.003 46.2811 102.954C46.3335 102.823 46.3983 102.673 46.3723 102.595C46.3459 102.516 46.3983 102.412 46.5291 102.281C46.6599 102.15 46.7251 102.02 46.7251 101.888C46.7251 101.758 46.7779 101.666 46.8827 101.614C46.9867 101.561 47.0391 101.496 47.0391 101.418C47.0391 101.339 47.1047 101.274 47.2355 101.221C47.3663 101.169 47.4319 101.103 47.4319 101.025C47.4319 100.946 47.5235 100.816 47.7063 100.633C47.8899 100.45 48.1775 100.228 48.5699 99.9652C48.9623 99.7039 49.2239 99.5727 49.3551 99.5727C49.4203 99.5727 49.4855 99.5727 49.5507 99.5727C49.5507 99.5464 49.5507 99.5208 49.5507 99.4946C49.5507 99.4421 49.7083 99.3639 50.0223 99.2589C50.3363 99.1539 50.8723 99.0496 51.6311 98.9452C52.3899 98.8402 52.9391 98.8139 53.2795 98.8665C53.6195 98.9183 54.3391 98.9183 55.4379 98.8665C56.5367 98.8139 57.1255 98.8139 57.2043 98.8665C57.2823 98.9183 57.6623 98.9452 58.3419 98.9452C59.0227 98.9452 59.4151 98.9714 59.5195 99.0233C59.6243 99.0764 60.4879 99.1021 62.1095 99.1021C63.7324 99.1021 64.5955 99.0764 64.6999 99.0233C64.8049 98.9714 67.6437 98.9452 67.8793 98.9452C68.1143 98.9452 68.258 98.9183 68.3105 98.8665C68.363 98.8139 68.5462 98.8008 68.8605 98.8277C69.1743 98.8533 69.3443 98.8402 69.3705 98.7883C69.3968 98.7358 75.3493 97.9377 75.4537 97.964C75.5055 97.9764 75.558 97.9902 75.6105 98.0027C75.6105 97.9764 75.6105 97.9508 75.6105 97.9252C75.6105 97.8727 75.9374 97.8064 76.5918 97.7283C77.2462 97.6496 77.6905 97.5583 77.9262 97.4533C78.1618 97.3483 78.4493 97.2971 78.7893 97.2971C78.9593 97.2971 81.4712 96.904 82.2037 96.7477C82.9362 96.5902 83.5643 96.5114 84.0874 96.5114C84.6105 96.5114 84.8855 96.4852 84.9118 96.4333C84.938 96.3808 85.0293 96.3808 85.1868 96.4333C85.343 96.4852 85.4349 96.4852 85.4612 96.4333C85.4874 96.3808 85.6574 96.3677 85.9712 96.3939C86.2849 96.4202 86.468 96.4071 86.5205 96.3552C86.573 96.3021 87.1224 96.3027 88.1693 96.3552C89.2155 96.4071 89.7524 96.4071 89.778 96.3552C89.7912 96.3283 89.8049 96.3027 89.8174 96.2765C89.8305 96.3158 89.8437 96.3552 89.8568 96.3939C89.8824 96.4727 90.0005 96.4852 90.2105 96.4333C90.4193 96.3808 90.6549 96.394 90.9162 96.4727C91.178 96.5508 91.3618 96.5639 91.4662 96.5114C91.5705 96.4596 91.6755 96.4596 91.7799 96.5114C91.8849 96.5639 92.028 96.5777 92.2118 96.5508C92.303 96.5377 92.3949 96.5252 92.4862 96.5114C92.4862 96.5377 92.4862 96.5639 92.4862 96.5902C92.4862 96.6427 92.748 96.6952 93.2712 96.7477C93.7943 96.7996 94.3574 96.9308 94.9587 97.1396C95.5605 97.3483 95.9662 97.4533 96.1755 97.4533C96.2805 97.4533 96.3849 97.4533 96.4893 97.4533C96.4893 97.4927 96.4893 97.5321 96.4893 97.5714C96.4893 97.6496 96.908 97.8202 97.7455 98.0814C98.5824 98.3433 99.6949 98.8277 101.081 99.5333C102.468 100.24 103.201 100.659 103.279 100.79C103.357 100.921 103.488 101.012 103.672 101.065C103.854 101.116 103.959 101.182 103.986 101.261C104.012 101.339 104.207 101.496 104.574 101.731C104.941 101.967 105.241 102.202 105.477 102.438C105.712 102.673 105.83 102.83 105.83 102.909C105.83 102.988 105.961 103.131 106.222 103.341C106.484 103.55 106.654 103.759 106.732 103.968C106.811 104.178 106.889 104.283 106.968 104.283C107.046 104.283 107.282 104.714 107.674 105.578C108.067 106.441 108.25 106.912 108.224 106.991C108.197 107.069 108.276 107.383 108.459 107.933C108.642 108.482 108.734 108.953 108.734 109.345C108.734 109.738 108.773 109.999 108.852 110.13C108.931 110.261 108.957 110.51 108.931 110.876C108.904 111.242 108.917 111.464 108.969 111.543C109.022 111.621 109.048 111.791 109.048 112.053C109.048 112.315 109.022 112.511 108.969 112.642C108.917 112.773 108.917 112.891 108.969 112.995C108.996 113.047 109.022 113.1 109.048 113.152C109.022 113.152 108.996 113.152 108.969 113.152C108.944 113.152 108.917 113.152 108.891 113.152C108.891 113.335 108.891 113.518 108.891 113.701C108.891 114.068 108.852 114.368 108.773 114.604C108.695 114.84 108.682 115.036 108.734 115.193C108.786 115.35 108.747 115.585 108.616 115.9C108.486 116.213 108.433 116.435 108.459 116.566C108.486 116.697 108.459 116.815 108.381 116.92C108.302 117.024 108.263 117.142 108.263 117.273C108.263 117.404 108.172 117.561 107.988 117.744C107.806 117.927 107.714 118.123 107.714 118.333C107.714 118.542 107.648 118.686 107.517 118.764C107.387 118.843 106.994 119.51 106.968 119.667C106.942 119.824 106.811 120.008 106.576 120.216C106.341 120.426 106.222 120.583 106.222 120.687C106.222 120.792 106.157 120.871 106.026 120.923C105.961 120.949 105.424 121.525 105.437 121.551C105.385 121.564 105.332 121.577 105.281 121.59C105.176 121.616 105.084 121.708 105.006 121.865C104.927 122.022 104.849 122.087 104.771 122.061C104.692 122.035 104.6 122.1 104.495 122.257C104.391 122.414 103.881 122.636 103.75 122.768C103.619 122.898 103.449 122.99 103.239 123.042C103.031 123.094 102.926 123.147 102.926 123.199C102.926 123.251 102.742 123.37 102.376 123.552C102.01 123.735 101.526 123.931 100.924 124.141C100.322 124.35 99.9949 124.442 99.943 124.416C99.9168 124.403 99.8905 124.39 99.8643 124.376C99.8518 124.403 99.8387 124.428 99.8249 124.455C99.7993 124.508 99.7468 124.521 99.668 124.494C99.6293 124.481 99.5899 124.468 99.5505 124.455C99.5505 124.481 99.5505 124.508 99.5505 124.533C99.5505 124.586 99.3412 124.638 98.9224 124.69C98.5037 124.743 98.2818 124.795 98.2549 124.848C98.2293 124.9 98.098 124.913 97.863 124.886C97.6274 124.86 96.9862 124.913 95.9399 125.044C94.893 125.174 93.8862 125.24 92.918 125.24C91.9499 125.24 90.6287 125.148 88.9543 124.965C87.2793 124.782 86.1149 124.625 85.4612 124.494C84.8074 124.363 81.5237 124.311 75.6105 124.337C69.6974 124.363 66.2568 124.35 65.2887 124.298C64.3205 124.245 63.7837 124.193 63.6793 124.141C63.5749 124.089 63.3268 124.075 62.9337 124.102C62.7374 124.115 62.5418 124.128 62.3451 124.141C62.3583 124.115 62.1359 123.918 62.0315 123.945C61.9267 123.971 61.6519 123.931 61.2071 123.826C60.7623 123.722 60.3963 123.578 60.1083 123.395C59.8207 123.212 59.6111 123.121 59.4803 123.121C59.4151 123.121 59.3495 123.121 59.2839 123.121C59.2839 123.094 59.2839 123.068 59.2839 123.042C59.2839 122.99 59.0487 122.833 58.5775 122.571C58.1067 122.31 57.8579 122.14 57.8319 122.061C57.8059 121.982 57.7535 121.943 57.6751 121.943C57.5963 121.943 57.4659 121.852 57.2823 121.668C57.0995 121.485 56.9683 121.406 56.8903 121.433C56.8115 121.459 56.7331 121.406 56.6543 121.276C56.5763 121.145 56.4715 121.066 56.3407 121.041C56.2099 121.015 55.9351 120.845 55.5163 120.531C55.0975 120.216 54.4043 119.785 53.4367 119.235C52.4683 118.686 51.8403 118.372 51.5527 118.293C51.2647 118.215 50.9247 118.058 50.5323 117.823C50.1399 117.586 49.7471 117.416 49.3551 117.312C48.9623 117.208 48.7663 117.128 48.7663 117.077C48.7663 117.024 48.6875 116.959 48.5307 116.881C48.3735 116.802 48.1383 116.723 47.8243 116.645C47.5103 116.566 47.1703 116.423 46.8039 116.213C46.4375 116.004 46.1235 115.873 45.8619 115.821C45.6003 115.768 45.4435 115.703 45.3911 115.625C45.3387 115.546 45.1295 115.468 44.7631 115.389C44.5803 115.35 44.3967 115.311 44.2135 115.271C44.2267 115.245 44.2399 115.219 44.2527 115.193C44.2663 115.166 44.2791 115.14 44.2923 115.114C44.1875 115.062 43.3371 114.866 43.2715 114.879C43.2847 114.853 43.1671 114.696 43.0755 114.683C42.8923 114.656 42.1595 114.343 40.8779 113.741C39.5956 113.139 38.837 112.825 38.6014 112.799C38.366 112.773 38.1174 112.628 37.8558 112.368C37.5942 112.105 37.4108 111.975 37.3061 111.975C37.2015 111.975 35.3964 110.575 35.344 110.444C35.2917 110.313 35.1609 110.195 34.9515 110.091C34.7423 109.986 34.3399 109.533 34.19 109.413C34.1187 109.357 34.0324 109.295 33.9312 109.228C33.6172 109.018 33.4079 108.835 33.3032 108.678C33.1986 108.521 33.0285 108.403 32.793 108.325C32.5576 108.246 32.4137 108.128 32.3614 107.972C32.309 107.814 32.1782 107.671 31.9689 107.54C31.7595 107.409 31.5895 107.252 31.4587 107.069C31.3279 106.886 31.2232 106.794 31.1447 106.794C31.0662 106.794 30.9092 106.65 30.6738 106.363C30.4383 106.075 29.1563 105.055 28.8684 104.714C28.5807 104.374 28.3582 104.178 28.2013 104.125C28.0443 104.073 27.8742 103.916 27.691 103.655C27.5079 103.393 27.3771 103.262 27.2986 103.262C27.2201 103.262 26.9715 103.026 26.5529 102.556C26.1343 102.085 25.8465 101.823 25.6895 101.771C25.5325 101.718 25.3363 101.535 25.1008 101.221C24.8654 100.907 24.6953 100.737 24.5906 100.711C24.486 100.685 24.3682 100.567 24.2374 100.358C24.1065 100.148 23.9889 100.018 23.8842 99.9652C23.7795 99.9133 23.7142 99.8346 23.688 99.7296C23.6619 99.6252 23.5833 99.5077 23.4525 99.3764C23.3216 99.2458 23.217 99.1808 23.1385 99.1808C23.06 99.1808 22.9685 99.0496 22.8638 98.7883C22.7592 98.5265 22.6545 98.3565 22.5499 98.2777C22.4452 98.1996 22.406 98.1208 22.432 98.0427C22.4583 97.9639 22.406 97.859 22.275 97.7283C22.1443 97.5977 22.0789 97.4671 22.0789 97.3358C22.0789 97.2052 22.0396 97.1133 21.9611 97.0608C21.8827 97.0089 21.8304 96.839 21.8042 96.5508C21.778 96.2633 21.778 96.0021 21.8042 95.7658C21.8304 95.5308 21.8957 95.3477 22.0004 95.2164C22.105 95.0858 22.2227 94.9946 22.3536 94.9421C22.4844 94.8896 22.563 94.824 22.589 94.7458C22.6153 94.6671 22.7722 94.5758 23.06 94.4708C23.3479 94.3664 23.8973 94.3664 24.7084 94.4708Z" fill="#FAF7F0"/>
<path fill-rule="evenodd" clip-rule="evenodd" d="M35.6675 32.0981C35.6223 32.1566 35.2429 32.2844 34.5297 32.4814C33.8164 32.6785 33.4257 32.8209 33.3579 32.9088C33.29 32.9966 33.141 33.0685 32.9107 33.1244C32.6805 33.1804 32.358 33.3404 31.9436 33.6046C31.529 33.8688 31.1694 34.0468 30.8646 34.1387C30.5599 34.2306 30.3396 34.3643 30.2039 34.54C30.0682 34.7157 29.636 35.0481 28.9074 35.5373C28.1788 36.0264 27.7822 36.3279 27.7177 36.4417C27.6532 36.5554 27.4995 36.6939 27.2566 36.8569C27.0137 37.02 26.7356 37.3194 26.4222 37.7553C26.1088 38.1913 25.8776 38.4451 25.7286 38.5169C25.5795 38.5888 25.4647 38.7223 25.3843 38.9173C25.3037 39.1122 25.2263 39.2277 25.1517 39.2636C25.0772 39.2996 25.0449 39.3564 25.0549 39.4343C25.0649 39.5121 24.9455 39.7121 24.6967 40.0343C24.4479 40.3563 24.322 40.6099 24.3194 40.7951C24.3167 40.9799 24.2765 41.0775 24.1987 41.0871C24.1208 41.0971 24.0563 41.2111 24.005 41.4287C23.9539 41.6463 23.8796 41.7875 23.7825 41.8531C23.6854 41.9183 23.6338 42.0299 23.6279 42.1895C23.6219 42.3483 23.5639 42.5143 23.4542 42.6863C23.3444 42.8591 23.2979 43.0095 23.3145 43.1395C23.3311 43.2691 23.2879 43.4459 23.1847 43.6703C23.0817 43.8951 23.0115 44.2735 22.9743 44.8055C22.937 45.3379 22.94 45.7727 22.9834 46.1099C23.0266 46.4475 22.9528 46.6943 22.7618 46.8507C22.5709 47.0071 22.3996 47.2139 22.2478 47.4703C22.0962 47.7275 21.9814 47.8607 21.9035 47.8707C21.8256 47.8807 21.5785 48.2159 21.1619 48.8759C20.7455 49.5363 20.5133 49.9883 20.4654 50.2315C20.4175 50.4751 20.3676 50.6003 20.3157 50.6067C20.2639 50.6135 20.1737 50.8363 20.0453 51.2747C19.9169 51.7131 19.8267 51.9359 19.7749 51.9423C19.7229 51.9491 19.5869 52.5339 19.3667 53.6959C19.1466 54.8587 19.0499 56.0579 19.0766 57.2947C19.1033 58.5307 19.168 59.4459 19.2704 60.0391C19.373 60.6331 19.4535 60.9523 19.5121 60.9975C19.5707 61.0427 19.6559 61.2955 19.7677 61.7563C19.8795 62.2167 19.9614 62.4431 20.0133 62.4367L20.0911 62.4267L20.1161 62.6216C20.1328 62.7516 20.2469 62.9209 20.4585 63.1316C20.6702 63.3416 20.8279 63.4403 20.9317 63.4272L21.0874 63.4072L21.0624 63.2122C21.0457 63.0822 20.9902 62.9578 20.8956 62.8378C20.8012 62.7184 20.6654 62.3795 20.4884 61.8219C20.3113 61.2643 20.1729 60.5963 20.0729 59.8179C19.973 59.0391 19.9264 58.1615 19.933 57.1847C19.9395 56.2075 20 55.3427 20.1144 54.5895C20.2289 53.8363 20.3967 53.0891 20.6183 52.3487C20.8398 51.6079 21.1409 50.8703 21.5214 50.1355C21.902 49.4011 22.2506 48.8287 22.5673 48.4187C22.884 48.0087 23.0813 47.7987 23.1592 47.7887C23.237 47.7787 23.3629 48.0399 23.5365 48.5711C23.7103 49.1031 23.9113 49.5391 24.1395 49.8787C24.3678 50.2191 24.5957 50.4531 24.8234 50.5827C25.0509 50.7115 25.1697 50.8151 25.1797 50.8927L25.1946 51.0095L25.3892 50.9847C25.519 50.9679 25.6312 51.0199 25.7256 51.1395C25.8202 51.2591 25.9503 51.3483 26.1159 51.4059C26.2817 51.4639 26.6387 51.4707 27.1869 51.4267C27.7353 51.3827 28.0304 51.3183 28.0723 51.2343C28.1142 51.1495 28.2244 51.0827 28.4027 51.0335C28.581 50.9839 28.8185 50.6767 29.1153 50.1111C29.412 49.5455 29.5121 48.8863 29.4155 48.1335C29.319 47.3811 29.2185 46.9059 29.1139 46.7083C29.0095 46.5107 28.9166 46.4039 28.8355 46.3883C28.7542 46.3719 28.6339 46.2559 28.4741 46.0387C28.3144 45.8219 28.1274 45.7007 27.9131 45.6755C27.6989 45.6503 27.5722 45.5875 27.5329 45.4871C27.5219 45.4587 27.511 45.4311 27.5 45.4031C27.4914 45.3807 27.4826 45.3583 27.4739 45.3359C27.4384 45.3671 27.4027 45.3983 27.3671 45.4291C27.2959 45.4907 27.2017 45.4763 27.0846 45.3859C26.9675 45.2959 26.7759 45.2411 26.5097 45.2223C26.2435 45.2039 25.7684 45.3043 25.0844 45.5239C24.7486 45.6319 24.4129 45.7395 24.077 45.8475L24.0749 45.8479L24.0583 45.8535C24.0991 45.4535 24.1399 45.0539 24.1807 44.6539L24.181 44.6507C24.2627 43.8487 24.4307 43.1019 24.6849 42.4095C24.939 41.7179 25.237 41.0595 25.579 40.4355C25.921 39.8112 26.1762 39.4356 26.3445 39.3084C26.5128 39.1813 26.6033 39.0642 26.616 38.9571C26.6286 38.8499 26.6852 38.7767 26.7856 38.7374C26.8861 38.6983 26.9913 38.5924 27.101 38.42C27.2109 38.2477 27.3046 38.1565 27.3824 38.1465C27.4604 38.1365 27.5412 38.047 27.625 37.878C27.7089 37.7089 27.8948 37.5136 28.1829 37.2921C28.4711 37.0704 28.6586 36.8881 28.7458 36.745C28.8329 36.6019 28.9414 36.5221 29.0712 36.5054C29.2009 36.4888 29.2997 36.4365 29.3676 36.3487C29.4355 36.2608 29.4627 36.165 29.4494 36.0613L29.4295 35.9055L29.663 35.8756C29.8187 35.8556 29.9532 35.7724 30.0662 35.626C30.1794 35.4796 30.3007 35.3981 30.4305 35.3814C30.5603 35.3648 30.6445 35.3012 30.683 35.1908C30.7216 35.0803 30.8674 34.9824 31.1202 34.8973C31.373 34.8121 31.6322 34.6733 31.8977 34.4809C32.1632 34.2886 32.3366 34.2004 32.4177 34.2164C32.4989 34.2323 32.5605 34.1981 32.6024 34.1136C32.6443 34.0291 32.7917 33.9443 33.0445 33.859C33.2974 33.7738 33.4335 33.7036 33.4527 33.6484C33.472 33.5931 33.5725 33.5539 33.7542 33.5306L34.0267 33.4956L34.0167 33.4178L34.0067 33.3399L34.3181 33.2999C34.5257 33.2733 34.7024 33.2111 34.8481 33.1133C34.9939 33.0154 35.2726 32.9269 35.6845 32.8477C36.0964 32.7684 36.307 32.6623 36.3163 32.5292C36.3256 32.3961 36.2311 32.2764 36.0329 32.1699C35.8345 32.0634 35.7127 32.0395 35.6675 32.0981ZM27.448 46.3683C27.1619 46.1939 26.7916 46.0831 26.3371 46.0359C25.8826 45.9887 25.4092 46.1023 24.9168 46.3763C24.4244 46.6507 24.2767 47.1443 24.4737 47.8575C24.6707 48.5711 24.8295 48.9859 24.9499 49.1023C25.0704 49.2187 25.1226 49.3175 25.1067 49.3987C25.0907 49.4799 25.1526 49.5511 25.2924 49.6123C25.432 49.6735 25.5379 49.7787 25.6098 49.9275C25.6817 50.0767 25.833 50.2287 26.064 50.3839C26.2949 50.5387 26.5451 50.6387 26.8146 50.6831C27.0841 50.7279 27.308 50.7251 27.4864 50.6763C27.6646 50.6267 27.8879 50.4135 28.1561 50.0363C28.4242 49.6591 28.5772 49.3095 28.615 48.9879C28.653 48.6667 28.6194 48.3019 28.5142 47.8935C28.409 47.4847 28.2765 47.1719 28.1169 46.9551C27.9571 46.7379 27.7342 46.5423 27.448 46.3683Z" fill="#FAF7F0"/>
<path fill-rule="evenodd" clip-rule="evenodd" d="M116.74 67.666C116.113 67.7448 115.707 67.836 115.524 67.941C115.342 68.0454 115.184 68.0979 115.054 68.0979C114.923 68.0979 114.752 68.1629 114.543 68.2941C114.334 68.4254 114.216 68.5298 114.19 68.6079C114.164 68.6866 114.033 68.7779 113.797 68.8823C113.562 68.9873 113.379 69.1185 113.248 69.2754C113.117 69.4323 113.013 69.5104 112.934 69.5104C112.855 69.5104 112.803 69.5635 112.777 69.6679C112.751 69.7723 112.646 69.916 112.464 70.0998C112.28 70.2823 112.149 70.3741 112.07 70.3741C111.992 70.3741 111.796 70.5054 111.482 70.7666C111.168 71.0285 110.841 71.2379 110.5 71.3941C110.16 71.5516 109.69 71.6429 109.088 71.6691C108.486 71.6954 108.028 71.7348 107.714 71.7866C107.4 71.8391 107.152 71.9179 106.969 72.0223C106.785 72.1273 106.655 72.1666 106.576 72.1404C106.498 72.1141 106.289 72.2448 105.948 72.5323C105.608 72.8204 105.438 73.0035 105.438 73.0823C105.438 73.1604 105.373 73.2266 105.242 73.2779C105.111 73.331 104.928 73.566 104.692 73.9848C104.457 74.4029 104.326 74.7429 104.3 75.0054C104.274 75.2666 104.235 75.4104 104.182 75.4366C104.13 75.4629 104.104 75.6329 104.104 75.9473C104.104 76.261 104.156 76.5623 104.26 76.8498C104.365 77.1379 104.47 77.321 104.575 77.3991C104.679 77.4779 104.732 77.5691 104.732 77.6735C104.732 77.7785 104.98 78.0666 105.477 78.5373C105.975 79.0085 106.485 79.3223 107.008 79.4791C107.531 79.636 107.806 79.741 107.832 79.7929C107.858 79.8454 108.002 79.8585 108.264 79.8323C108.526 79.806 108.709 79.8198 108.814 79.8716C108.918 79.9241 109.088 79.9241 109.324 79.8716C109.559 79.8198 110.16 79.8454 111.129 79.9498C112.097 80.0548 112.685 80.081 112.895 80.0285C113.104 79.9766 113.418 79.9898 113.837 80.0679C114.255 80.1466 114.766 80.1854 115.367 80.1854C115.969 80.1854 116.349 80.1598 116.505 80.1073C116.663 80.0548 116.819 80.0548 116.977 80.1073C117.134 80.1598 118.899 80.1854 122.275 80.1854C125.65 80.1854 127.482 80.1466 127.769 80.0679C128.057 79.9898 128.279 79.9766 128.436 80.0285C128.594 80.081 128.763 80.081 128.947 80.0285C129.129 79.9766 129.417 79.9635 129.81 79.9898C130.203 80.0154 130.621 79.976 131.066 79.8716C131.51 79.7666 131.837 79.6623 132.047 79.5579C132.256 79.4529 132.361 79.3741 132.361 79.3223C132.361 79.2698 132.492 79.2179 132.753 79.1654C133.015 79.1129 133.146 79.0604 133.146 79.0085C133.146 78.956 133.225 78.9035 133.381 78.851C133.44 78.8316 133.499 78.8123 133.558 78.7923C133.577 78.786 133.597 78.7798 133.617 78.7729C133.61 78.7604 133.604 78.7479 133.598 78.7354C133.591 78.7223 133.584 78.7079 133.577 78.6941C133.552 78.6423 133.656 78.4979 133.892 78.2629C134.127 78.0266 134.166 77.5954 134.009 76.9679C133.853 76.3398 133.722 76.0123 133.617 75.986C133.512 75.9604 133.447 75.8685 133.42 75.7116C133.395 75.5541 133.25 75.3454 132.989 75.0835C132.727 74.8223 132.244 74.5604 131.537 74.2985C130.83 74.0373 130.11 73.8798 129.378 73.8279C128.645 73.7754 128.109 73.6966 127.769 73.5923C127.429 73.4879 127.024 73.2779 126.553 72.9641C126.082 72.6498 125.715 72.3623 125.454 72.101C125.192 71.8391 125.048 71.6429 125.022 71.5123C124.995 71.381 124.852 71.2241 124.59 71.0416C124.329 70.8579 124.172 70.701 124.119 70.5704C124.067 70.4398 123.936 70.3216 123.727 70.2173C123.517 70.1123 123.282 69.916 123.02 69.6285C122.759 69.3404 122.523 69.1704 122.314 69.1185C122.105 69.066 121.895 68.9354 121.686 68.726C121.477 68.5166 121.124 68.3073 120.626 68.0979C120.129 67.8885 119.515 67.7448 118.782 67.666C118.049 67.5879 117.369 67.5879 116.74 67.666ZM119.959 68.7648C119.802 68.6341 119.527 68.5429 119.135 68.4904C119.074 68.4823 118.961 68.4598 118.824 68.4323C118.526 68.3729 118.11 68.2904 117.845 68.2785C117.458 68.261 116.623 68.3729 116.545 68.451C116.466 68.5298 116.126 68.6729 115.524 68.8823C114.923 69.0923 114.373 69.4454 113.876 69.9423C113.379 70.4398 112.96 70.8054 112.62 71.0416C112.28 71.2766 112.097 71.4335 112.07 71.5123C112.045 71.591 111.966 71.6173 111.835 71.591L111.639 71.5516V71.7085C111.639 71.8129 111.495 71.9566 111.207 72.1404C110.919 72.3235 110.67 72.4541 110.462 72.5323C110.252 72.611 109.847 72.6373 109.245 72.611C108.644 72.5848 108.329 72.5985 108.303 72.6498C108.277 72.7029 108.172 72.7285 107.989 72.7285C107.806 72.7285 107.584 72.781 107.322 72.886C107.06 72.9904 106.838 73.1216 106.655 73.2779C106.472 73.4354 106.341 73.5141 106.262 73.5141C106.184 73.5141 105.961 73.7885 105.595 74.3379C105.269 74.8266 105.215 75.0941 105.151 75.4054C105.143 75.4435 105.135 75.4829 105.127 75.5235C105.048 75.8898 105.087 76.2566 105.244 76.6223C105.401 76.9885 105.676 77.3554 106.068 77.721C106.461 78.0879 106.84 78.3491 107.207 78.5066C107.573 78.6629 108.083 78.781 108.737 78.8591C109.392 78.9379 109.94 78.9773 110.386 78.9773C110.683 78.9773 110.798 79.0498 110.849 79.0823C110.875 79.0979 110.885 79.1041 110.894 79.0866C110.919 79.0348 111.364 79.0085 112.227 79.0085C113.091 79.0085 113.549 79.0348 113.601 79.0866C113.654 79.1385 113.732 79.1385 113.837 79.0866C113.942 79.0348 114.138 79.0479 114.425 79.126C114.714 79.2041 114.896 79.2179 114.975 79.1654C115.054 79.1129 115.263 79.0866 115.603 79.0866C115.943 79.0866 116.139 79.1129 116.192 79.1654C116.217 79.1916 116.244 79.2179 116.27 79.2435C116.257 79.2179 116.244 79.1916 116.231 79.1654C116.217 79.1391 116.205 79.1129 116.192 79.0879V79.0866C116.244 79.0735 116.296 79.0604 116.349 79.0479C116.453 79.021 116.623 79.0348 116.859 79.0866C117.094 79.1385 118.036 79.1654 119.685 79.1654C121.333 79.1654 122.34 79.1385 122.706 79.0866C123.073 79.0348 123.674 79.0348 124.512 79.0866C125.349 79.1385 126.134 79.126 126.867 79.0479C127.599 78.9685 128.397 78.9298 129.26 78.9298C130.124 78.9298 130.804 78.851 131.302 78.6941C131.798 78.5373 132.086 78.4723 132.165 78.4979C132.244 78.5241 132.309 78.4979 132.361 78.4198C132.413 78.341 132.531 78.2885 132.714 78.2629C132.897 78.2366 132.989 78.1966 132.989 78.1454C132.989 78.0929 133.067 78.0266 133.225 77.9485C133.381 77.8698 133.46 77.7266 133.46 77.5173C133.46 77.3079 133.381 77.0591 133.225 76.771C133.067 76.4835 132.832 76.1823 132.518 75.8685C132.204 75.5541 131.811 75.3191 131.34 75.1623C130.869 75.0054 130.189 74.8873 129.299 74.8091C128.41 74.7304 127.9 74.6385 127.769 74.5341C127.638 74.4291 127.534 74.4029 127.455 74.4554C127.377 74.5079 127.206 74.4823 126.945 74.3779C126.684 74.2729 126.383 74.1023 126.042 73.8673C125.702 73.6316 125.375 73.3179 125.062 72.9254C124.747 72.5323 124.472 72.2448 124.237 72.0616C124.002 71.8785 123.844 71.7085 123.766 71.5516C123.687 71.3941 123.452 71.1591 123.059 70.8454C122.667 70.531 122.471 70.3348 122.471 70.2566C122.471 70.1779 122.354 70.0866 122.117 69.9823C121.882 69.8773 121.686 69.7329 121.529 69.5498C121.372 69.3666 121.11 69.2229 120.744 69.1185C120.378 69.0135 120.116 68.896 119.959 68.7648Z" fill="#FAF7F0"/>
<path fill-rule="evenodd" clip-rule="evenodd" d="M127.886 86.8962C127.939 87.2362 128.043 87.5637 128.201 87.8775C128.357 88.1919 128.436 88.44 128.436 88.6231C128.436 88.8062 128.501 89.0419 128.632 89.3294C128.762 89.6175 128.815 89.8269 128.789 89.9575C128.762 90.0881 128.802 90.2581 128.906 90.4675C129.011 90.6769 129.181 91.5275 129.417 93.0187C129.652 94.51 129.744 95.8181 129.691 96.9431C129.639 98.0681 129.587 98.6437 129.534 98.67C129.482 98.6962 129.456 98.8137 129.456 99.0231C129.456 99.2325 129.429 99.3506 129.377 99.3762C129.325 99.4025 129.233 99.6906 129.103 100.24C128.972 100.789 128.867 101.091 128.789 101.142C128.71 101.195 128.606 101.365 128.475 101.652C128.344 101.941 128.252 102.084 128.201 102.084C128.147 102.084 128.109 101.992 128.082 101.81C128.056 101.626 128.004 101.522 127.925 101.496C127.847 101.469 127.821 101.404 127.847 101.299C127.873 101.195 127.782 101.038 127.572 100.829C127.363 100.619 127.245 100.422 127.219 100.24C127.192 100.057 127.101 99.9394 126.944 99.8869C126.787 99.8344 126.565 99.6512 126.277 99.3375C125.989 99.0231 125.793 98.8662 125.689 98.8662C125.584 98.8662 125.401 98.7881 125.139 98.6306C124.877 98.4737 124.563 98.3694 124.197 98.3169C124.014 98.2906 123.831 98.265 123.649 98.2387L123.647 98.2381V98.3169V98.395H123.216C122.928 98.395 122.758 98.4344 122.705 98.5131C122.654 98.5919 122.562 98.6437 122.431 98.67C122.3 98.6962 122.196 98.7881 122.117 98.945C122.039 99.1019 121.947 99.1937 121.842 99.2194C121.737 99.2456 121.659 99.2981 121.607 99.3762C121.554 99.455 121.371 99.9519 121.371 100.083C121.371 100.214 121.332 100.318 121.254 100.397C121.175 100.475 121.109 100.698 121.057 101.064C121.005 101.43 121.018 101.692 121.096 101.849C121.175 102.006 121.214 102.202 121.214 102.438C121.214 102.673 121.279 102.882 121.411 103.066C121.446 103.115 121.496 103.192 121.552 103.277C121.705 103.511 121.902 103.811 121.959 103.811C122.039 103.811 122.104 103.902 122.156 104.086C122.209 104.269 122.326 104.374 122.509 104.4C122.692 104.426 122.824 104.492 122.902 104.596C122.981 104.701 123.072 104.753 123.177 104.753C123.281 104.753 123.359 104.806 123.412 104.91C123.464 105.015 123.831 105.106 124.511 105.185C125.191 105.264 125.557 105.264 125.609 105.185C125.662 105.106 125.845 105.054 126.159 105.028C126.473 105.002 126.669 104.936 126.748 104.832C126.826 104.727 126.918 104.674 127.023 104.674H127.179V105.342C127.179 105.787 127.141 106.035 127.062 106.087C126.983 106.139 126.918 106.349 126.866 106.716C126.813 107.082 126.565 107.709 126.12 108.599C125.675 109.489 125.322 110.065 125.061 110.326C124.799 110.588 124.629 110.811 124.551 110.993C124.472 111.176 124.341 111.334 124.157 111.464C123.975 111.595 123.856 111.726 123.805 111.857C123.752 111.987 123.542 112.197 123.177 112.485C122.81 112.772 122.535 113.034 122.352 113.269C122.169 113.505 121.999 113.649 121.842 113.701C121.685 113.754 121.594 113.819 121.567 113.897C121.541 113.976 121.359 114.146 121.018 114.407C120.678 114.669 120.456 114.8 120.351 114.8C120.246 114.8 120.181 114.839 120.155 114.918C120.129 114.996 120.024 115.088 119.841 115.192C119.657 115.297 119.539 115.336 119.487 115.311C119.435 115.284 119.343 115.336 119.213 115.467C119.082 115.598 118.991 115.651 118.937 115.624C118.927 115.619 118.917 115.614 118.907 115.609C118.891 115.601 118.875 115.592 118.859 115.585V115.664C118.859 115.716 118.755 115.782 118.546 115.859C118.336 115.938 118.114 116.082 117.879 116.291C117.643 116.501 117.459 116.605 117.329 116.605C117.198 116.605 117.093 116.658 117.015 116.762C116.936 116.867 116.845 116.919 116.74 116.919C116.635 116.919 116.531 116.959 116.426 117.037C116.321 117.116 116.282 117.194 116.309 117.272C116.335 117.351 116.439 117.404 116.622 117.429C116.806 117.456 116.976 117.456 117.133 117.429C117.289 117.404 117.368 117.364 117.368 117.312C117.368 117.295 117.368 117.277 117.368 117.259C117.368 117.251 117.368 117.242 117.368 117.233C117.407 117.247 117.446 117.259 117.486 117.272C117.564 117.299 117.656 117.259 117.761 117.155C117.865 117.051 118.049 116.998 118.31 116.998C118.572 116.998 118.833 116.906 119.095 116.723C119.356 116.54 119.527 116.462 119.605 116.487C119.684 116.514 119.749 116.487 119.801 116.409C119.854 116.331 119.945 116.291 120.076 116.291C120.207 116.291 120.285 116.252 120.312 116.174C120.337 116.096 120.456 116.043 120.665 116.017C120.874 115.991 120.992 115.938 121.018 115.859C121.044 115.782 121.096 115.742 121.175 115.742H121.293V115.624V115.507L121.296 115.508C121.321 115.521 121.346 115.533 121.371 115.546C121.387 115.554 121.403 115.562 121.419 115.569C121.429 115.575 121.439 115.58 121.449 115.585V115.507V115.428H121.607C121.712 115.428 121.829 115.362 121.959 115.232C122.091 115.101 122.222 115.022 122.352 114.996C122.483 114.97 122.601 114.879 122.705 114.722C122.81 114.565 122.902 114.486 122.981 114.486H123.098V114.368V114.251H123.255C123.359 114.251 123.451 114.172 123.529 114.015C123.569 113.937 123.609 113.858 123.647 113.779C123.655 113.784 123.663 113.787 123.671 113.792C123.689 113.801 123.708 113.81 123.726 113.819C123.779 113.845 123.935 113.741 124.197 113.505C124.459 113.269 124.707 112.982 124.942 112.642C125.178 112.302 125.348 112.105 125.453 112.053C125.557 112.001 125.623 111.922 125.649 111.817C125.675 111.712 125.727 111.647 125.806 111.621C125.816 111.618 125.826 111.615 125.836 111.611C125.865 111.602 125.894 111.592 125.924 111.582C125.911 111.542 125.897 111.504 125.884 111.464C125.881 111.454 125.878 111.444 125.874 111.434C125.865 111.405 125.855 111.376 125.845 111.346C125.872 111.359 125.897 111.372 125.924 111.386C125.976 111.412 126.054 111.334 126.159 111.151C126.264 110.967 126.355 110.862 126.434 110.836C126.512 110.811 126.787 110.339 127.259 109.423C127.729 108.508 128.056 107.684 128.239 106.951C128.422 106.218 128.514 105.46 128.514 104.674C128.514 103.89 128.592 103.432 128.749 103.301C128.906 103.171 129.168 102.804 129.534 102.202C129.901 101.601 130.123 101.103 130.202 100.711C130.28 100.318 130.384 99.9781 130.516 99.6906C130.646 99.4025 130.725 99.01 130.751 98.5131C130.777 98.0162 130.817 97.7412 130.869 97.6887C130.921 97.6369 130.947 97.3225 130.947 96.7475C130.947 96.1719 130.921 95.8444 130.869 95.7656C130.817 95.6875 130.791 95.4912 130.791 95.1775C130.791 94.8631 130.751 94.6669 130.673 94.5887C130.594 94.51 130.568 94.34 130.594 94.0781C130.621 93.8169 130.581 93.5681 130.476 93.3325C130.372 93.0975 130.332 92.9275 130.359 92.8225C130.384 92.7175 130.306 92.325 130.123 91.645C129.94 90.965 129.77 90.4806 129.613 90.1931C129.456 89.905 129.352 89.6306 129.299 89.3687C129.247 89.1075 129.168 88.9106 129.064 88.78C128.959 88.6494 128.919 88.5444 128.946 88.4662C128.972 88.3875 128.946 88.3225 128.867 88.27C128.789 88.2175 128.684 88.0081 128.553 87.6419C128.422 87.2756 128.318 87.0925 128.239 87.0925H128.122V86.8962C128.122 86.765 128.069 86.6475 127.964 86.5431L127.807 86.3862C127.834 86.5562 127.86 86.7262 127.886 86.8962ZM125.727 100.161C125.544 99.8737 125.204 99.6381 124.707 99.455C124.21 99.2719 123.817 99.2325 123.529 99.3375C123.242 99.4419 122.967 99.6775 122.705 100.044C122.444 100.41 122.3 100.763 122.274 101.103C122.247 101.444 122.274 101.797 122.352 102.162C122.431 102.529 122.496 102.712 122.549 102.712H122.627V102.909C122.627 103.039 122.666 103.118 122.745 103.144C122.824 103.171 122.863 103.222 122.863 103.301C122.863 103.379 123.046 103.549 123.412 103.811C123.779 104.072 124.066 104.217 124.275 104.242C124.293 104.245 124.322 104.251 124.361 104.257C124.561 104.292 125.009 104.372 125.373 104.306C125.632 104.259 125.837 104.115 125.975 104.018C126.037 103.975 126.086 103.941 126.12 103.929C126.355 103.851 126.591 103.719 126.826 103.537C127.062 103.353 127.141 103.171 127.062 102.987C126.983 102.804 126.971 102.66 127.023 102.556C127.075 102.451 127.049 102.359 126.944 102.281C126.839 102.202 126.813 102.124 126.866 102.045C126.892 102.006 126.918 101.967 126.944 101.927C126.909 101.911 126.875 101.892 126.84 101.875C126.822 101.866 126.805 101.857 126.787 101.849C126.682 101.797 126.591 101.614 126.512 101.299C126.434 100.986 126.355 100.816 126.277 100.789L126.159 100.751C126.168 100.732 126.177 100.715 126.185 100.697C126.189 100.689 126.194 100.681 126.199 100.672C126.212 100.646 126.224 100.619 126.237 100.593V100.592H126.12C126.041 100.592 125.911 100.449 125.727 100.161Z" fill="#FAF7F0"/>
</g>
</g>
</g>
<defs>
<filter id="filter0_f_7_18" x="23.4976" y="22.521" width="109.529" height="138.72" filterUnits="userSpaceOnUse" color-interpolation-filters="sRGB">
<feFlood flood-opacity="0" result="BackgroundImageFix"/>
<feBlend mode="normal" in="SourceGraphic" in2="BackgroundImageFix" result="shape"/>
<feGaussianBlur stdDeviation="18" result="effect1_foregroundBlur_7_18"/>
</filter>
<filter id="filter1_f_7_18" x="69.5459" y="-28.1323" width="109.529" height="138.72" filterUnits="userSpaceOnUse" color-interpolation-filters="sRGB">
<feFlood flood-opacity="0" result="BackgroundImageFix"/>
<feBlend mode="normal" in="SourceGraphic" in2="BackgroundImageFix" result="shape"/>
<feGaussianBlur stdDeviation="18" result="effect1_foregroundBlur_7_18"/>
</filter>
<filter id="filter2_f_7_18" x="26.2812" y="-20.125" width="99.7969" height="99.9629" filterUnits="userSpaceOnUse" color-interpolation-filters="sRGB">
<feFlood flood-opacity="0" result="BackgroundImageFix"/>
<feBlend mode="normal" in="SourceGraphic" in2="BackgroundImageFix" result="shape"/>
<feGaussianBlur stdDeviation="10.5" result="effect1_foregroundBlur_7_18"/>
</filter>
<filter id="filter3_f_7_18" x="27.5708" y="1.67285" width="129.712" height="95.9185" filterUnits="userSpaceOnUse" color-interpolation-filters="sRGB">
<feFlood flood-opacity="0" result="BackgroundImageFix"/>
<feBlend mode="normal" in="SourceGraphic" in2="BackgroundImageFix" result="shape"/>
<feGaussianBlur stdDeviation="15.5" result="effect1_foregroundBlur_7_18"/>
</filter>
<filter id="filter4_f_7_18" x="25.7583" y="9.34424" width="79.5015" height="121.566" filterUnits="userSpaceOnUse" color-interpolation-filters="sRGB">
<feFlood flood-opacity="0" result="BackgroundImageFix"/>
<feBlend mode="normal" in="SourceGraphic" in2="BackgroundImageFix" result="shape"/>
<feGaussianBlur stdDeviation="15" result="effect1_foregroundBlur_7_18"/>
</filter>
<radialGradient id="paint0_radial_7_18" cx="0" cy="0" r="1" gradientUnits="userSpaceOnUse" gradientTransform="translate(31.5095 51.2631) rotate(-16.4339) scale(64.3725 47.8616)">
<stop stop-color="#615DE6"/>
<stop offset="0.323513" stop-color="#84A3E9"/>
<stop offset="0.504489" stop-color="#B0CFE8"/>
<stop offset="0.82687" stop-color="#D0F8CF"/>
<stop offset="1" stop-color="#BFF2B4"/>
</radialGradient>
<radialGradient id="paint1_radial_7_18" cx="0" cy="0" r="1" gradientUnits="userSpaceOnUse" gradientTransform="translate(92.4271 49.6321) rotate(68.8005) scale(12.1524 35.8576)">
<stop stop-color="#C9F6C6"/>
<stop offset="1" stop-color="#B8F5D6"/>
</radialGradient>
<clipPath id="clip0_7_18">
<rect width="150" height="150" fill="white"/>
</clipPath>
</defs>
</svg>
