<svg width="23" height="25" viewBox="0 0 23 25" fill="none" xmlns="http://www.w3.org/2000/svg">
<path d="M17 2.49121H7C4.23858 2.49121 2 4.72979 2 7.49121V17.4912C2 20.2526 4.23858 22.4912 7 22.4912H17C19.7614 22.4912 22 20.2526 22 17.4912V7.49121C22 4.72979 19.7614 2.49121 17 2.49121Z" stroke="black" stroke-width="2" stroke-linecap="round" stroke-linejoin="round"/>
<path d="M16.0002 11.861C16.1236 12.6933 15.9815 13.5432 15.594 14.29C15.2065 15.0368 14.5933 15.6424 13.8418 16.0207C13.0903 16.399 12.2386 16.5306 11.408 16.397C10.5773 16.2633 9.80996 15.8711 9.21503 15.2762C8.62011 14.6813 8.22793 13.9139 8.09426 13.0832C7.9606 12.2526 8.09226 11.4009 8.47052 10.6494C8.84878 9.89788 9.45438 9.28476 10.2012 8.89727C10.948 8.50977 11.7979 8.36761 12.6302 8.49102C13.4791 8.61691 14.265 9.01249 14.8719 9.61933C15.4787 10.2262 15.8743 11.0121 16.0002 11.861Z" stroke="black" stroke-width="2" stroke-linecap="round" stroke-linejoin="round"/>
<path d="M17.5 6.99121H17.51" stroke="black" stroke-width="2" stroke-linecap="round" stroke-linejoin="round"/>
</svg>
