<svg width="118" height="120" viewBox="0 0 118 120" fill="none" xmlns="http://www.w3.org/2000/svg">
<mask id="mask0_28_23" style="mask-type:luminance" maskUnits="userSpaceOnUse" x="21" y="34" width="97" height="86">
<path d="M117.189 34.2456H21.189V119.246H117.189V34.2456Z" fill="white"/>
</mask>
<g mask="url(#mask0_28_23)">
<path d="M116.88 67.6984C116.88 67.6984 107.888 57.0623 107.883 57.0563C107.881 57.0534 107.685 56.7452 107.08 56.575L69.61 47.2069C69.334 47.1381 69.0434 47.1381 68.768 47.2069L31.2974 56.575C31.2974 56.575 30.7858 56.7057 30.4784 57.0731C30.3553 57.2202 21.4977 67.6984 21.4977 67.6984C21.2007 68.0494 21.1116 68.5064 21.2583 68.9254C21.4053 69.3454 21.7703 69.6774 22.2399 69.8184L30.1697 72.2014V91.2554C30.1697 91.8094 30.5475 92.3094 31.1269 92.5214L68.5978 106.231C68.7091 106.272 68.8504 106.335 69.1889 106.335C69.527 106.335 69.78 106.231 69.78 106.231L107.251 92.5214C107.831 92.3094 108.208 91.8094 108.208 91.2554V72.2004L116.138 69.8174C116.607 69.6764 116.972 69.3444 117.119 68.9254C117.266 68.5064 117.177 68.0494 116.88 67.6984ZM25.2556 67.8284L32.325 59.4646L35.1843 60.162L51.2762 64.0867L66.4943 67.7984L57.5691 77.5384L25.2556 67.8284ZM67.6408 102.914L33.2664 90.3374V73.1314L57.5949 80.4424C57.7579 80.4924 57.9258 80.5154 58.0924 80.5154C58.55 80.5154 58.995 80.3354 59.2945 80.0084L67.641 70.9004L67.6408 102.914ZM69.1889 65.6125L37.4812 57.8783L69.1889 49.9507L100.897 57.8783L69.1889 65.6125ZM105.112 90.3374L70.737 102.914V70.9004L79.084 80.0084C79.383 80.3354 79.828 80.5154 80.286 80.5154C80.452 80.5154 80.62 80.4924 80.783 80.4434L105.112 73.1314V90.3374ZM80.809 77.5394L71.884 67.7994L106.053 59.4646L113.123 67.8284L80.809 77.5394Z" fill="white"/>
</g>
<path fill-rule="evenodd" clip-rule="evenodd" d="M69.189 29.746C64.9154 24.8529 57.7742 23.3408 52.4197 27.8213C47.0651 32.3019 46.3113 39.7931 50.5162 45.0923C54.0124 49.4981 64.5929 58.7906 68.0606 61.7983C68.4485 62.1347 68.6425 62.303 68.8688 62.369C69.0662 62.4266 69.282 62.4266 69.48 62.369C69.706 62.303 69.9 62.1347 70.288 61.7983C73.756 58.7906 84.336 49.4981 87.833 45.0923C92.037 39.7931 91.376 32.2547 85.929 27.8213C80.482 23.3879 73.463 24.8529 69.189 29.746Z" fill="#221B4B" stroke="white" stroke-width="2" stroke-linecap="round" stroke-linejoin="round"/>
<path d="M0.811035 2.50781L30.7957 28.9835" stroke="#EEA233"/>
<path d="M4.64355 55.246L19.6451 55.2334" stroke="#EEA233"/>
<path d="M51.5229 0.753906L54.9103 15.3679" stroke="#EEA233"/>
</svg>
